M48
; DRILL file {KiCad 9.0.4-208-g72db7bfedc} date 2026-05-13T15:04:08+0530
; FORMAT={-:-/ absolute / metric / decimal}
; #@! TF.CreationDate,2026-05-13T15:04:08+05:30
; #@! TF.GenerationSoftware,Kicad,Pcbnew,9.0.4-208-g72db7bfedc
; #@! TF.FileFunction,Plated,1,2,PTH
FMAT,2
METRIC
; #@! TA.AperFunction,Plated,PTH,ViaDrill
T1C0.300
; #@! TA.AperFunction,Plated,PTH,ViaDrill
T2C0.400
; #@! TA.AperFunction,Plated,PTH,ComponentDrill
T3C0.600
; #@! TA.AperFunction,Plated,PTH,ComponentDrill
T4C0.700
; #@! TA.AperFunction,Plated,PTH,ComponentDrill
T5C0.760
; #@! TA.AperFunction,Plated,PTH,ComponentDrill
T6C0.800
; #@! TA.AperFunction,Plated,PTH,ComponentDrill
T7C0.900
; #@! TA.AperFunction,Plated,PTH,ComponentDrill
T8C1.000
; #@! TA.AperFunction,Plated,PTH,ComponentDrill
T9C1.200
; #@! TA.AperFunction,Plated,PTH,ComponentDrill
T10C1.300
; #@! TA.AperFunction,Plated,PTH,ComponentDrill
T11C1.710
; #@! TA.AperFunction,Plated,PTH,ViaDrill
T12C5.500
; #@! TA.AperFunction,Plated,PTH,ViaDrill
T13C6.000
; #@! TA.AperFunction,Plated,PTH,ViaDrill
T14C6.800
%
G90
G05
T1
X91.25Y-85.25
X91.25Y-87.25
X91.5Y-69.5
X91.5Y-71.75
X91.5Y-74.25
X91.5Y-76.75
X91.5Y-78.75
X98.4Y-61.1
X98.4Y-63.1
X98.5Y-66.5
X99.25Y-72.0
X102.0Y-77.75
X103.0Y-76.25
X103.95Y-71.29
X103.98Y-72.53
X104.0Y-79.0
X104.0Y-80.25
X104.04Y-73.76
X104.1Y-106.1
X106.1Y-106.1
X107.0Y-95.25
X109.0Y-105.7
X117.75Y-108.75
X118.25Y-87.75
X125.5Y-92.0
X125.81Y-101.78
X127.25Y-70.0
X127.75Y-74.0
X127.75Y-75.25
X127.75Y-76.5
X127.75Y-77.75
X127.75Y-79.0
X127.75Y-80.25
X127.75Y-81.5
X128.0Y-83.0
X128.0Y-84.25
X128.103Y-88.353
X128.75Y-86.0
X130.25Y-108.5
X131.19Y-103.4
X132.25Y-95.75
X133.25Y-69.0
X133.25Y-108.5
X134.25Y-91.75
X134.25Y-95.75
X134.5Y-68.0
X135.25Y-108.5
X137.0Y-86.5
X137.5Y-95.75
X137.5Y-108.5
X139.0Y-62.0
X140.0Y-108.5
X140.5Y-80.75
X141.5Y-64.0
X141.75Y-86.5
X142.75Y-65.5
X143.25Y-80.299
X144.86Y-96.07
X145.75Y-96.0
X146.5Y-96.01
X147.5Y-96.0
X148.75Y-75.5
X148.75Y-85.5
X152.5Y-107.0
X163.5Y-75.75
X163.75Y-103.0
X164.75Y-85.0
X165.25Y-96.0
X166.9Y-97.5
X167.0Y-96.08
X167.4Y-108.6
X168.2Y-65.6
X168.8Y-84.0
X170.5Y-108.7
X170.8Y-84.0
X171.9Y-64.3
X173.0Y-84.0
X174.6Y-108.8
X175.9Y-100.68
X176.3Y-100.68
X177.0Y-76.75
X177.5Y-82.5
X177.75Y-61.25
X178.5Y-108.6
X181.25Y-79.0
X181.4Y-107.1
X181.5Y-61.1
X182.75Y-68.25
X183.2Y-104.5
X190.25Y-75.5
X197.7Y-74.8
X203.3Y-61.1
X203.8Y-90.1
X205.0Y-69.75
X205.1Y-83.7
X205.2Y-91.6
X205.25Y-67.25
X205.4Y-61.1
X206.23Y-66.27
X206.97Y-65.28
X207.5Y-61.1
X209.9Y-61.1
X210.5Y-65.75
X212.2Y-61.1
X213.9Y-62.7
X214.1Y-101.2
X215.0Y-70.5
X215.5Y-64.3
X216.6Y-66.2
X218.7Y-68.0
X218.9Y-101.3
X219.35Y-87.72
X221.1Y-68.2
X223.4Y-84.7
X223.5Y-87.3
X223.5Y-101.2
X223.6Y-68.3
X223.6Y-90.2
X223.6Y-93.2
X223.6Y-97.6
X223.8Y-70.5
X223.9Y-72.9
T2
X102.0Y-61.84
X128.26Y-103.07
X140.25Y-93.25
X140.8Y-105.32
X182.75Y-99.75
X183.75Y-98.75
X183.88Y-75.5
X183.88Y-76.0
X183.88Y-76.5
T3
X176.25Y-96.75
X177.5Y-96.75
X178.75Y-96.75
X180.0Y-96.75
T4
X117.75Y-107.0
X119.75Y-107.0
T5
X201.75Y-72.25
X201.75Y-74.79
X201.75Y-82.41
X201.75Y-87.49
T6
X200.25Y-96.25
X202.75Y-96.25
X219.71Y-74.38
X219.71Y-82.0
X222.25Y-74.38
X222.25Y-82.0
T7
X143.71Y-89.0
X143.75Y-72.25
X146.25Y-89.0
X146.29Y-72.25
X158.71Y-89.0
X158.75Y-72.25
X161.25Y-89.0
X161.29Y-72.25
X173.71Y-89.0
X173.725Y-72.25
X176.25Y-89.0
X176.265Y-72.25
T8
X96.5Y-80.0
X96.5Y-84.5
X169.75Y-64.21
X169.75Y-66.75
X190.25Y-62.95
X190.25Y-70.55
T9
X201.69Y-101.1
X205.5Y-101.1
X209.31Y-101.1
T10
X99.0Y-78.75
X99.0Y-85.75
T11
X94.0Y-90.53
X94.0Y-99.75
X98.5Y-90.53
X98.5Y-99.75
T12
X200.79Y-78.54
X201.605Y-78.518
X202.22Y-78.52
X202.82Y-78.49
X204.69Y-78.28
X205.29Y-78.79
T13
X219.51Y-78.21
X220.1Y-78.21
X220.41Y-78.19
X221.0Y-78.19
T14
X208.0Y-78.25
X208.5Y-78.25
X209.0Y-78.25
X209.25Y-78.25
X209.5Y-78.25
X209.75Y-78.25
X210.25Y-78.25
X210.75Y-78.25
X211.25Y-78.25
X211.75Y-78.25
X212.25Y-78.25
X212.75Y-78.25
X213.0Y-78.25
X213.5Y-78.25
X214.0Y-78.25
X214.5Y-78.25
X215.0Y-78.25
X215.5Y-78.25
X216.0Y-78.25
M30
