%TF.GenerationSoftware,KiCad,Pcbnew,9.0.4-208-g72db7bfedc*%
%TF.CreationDate,2026-05-13T15:04:04+05:30*%
%TF.ProjectId,AIR QUALITY LEDS,41495220-5155-4414-9c49-5459204c4544,rev?*%
%TF.SameCoordinates,Original*%
%TF.FileFunction,Legend,Bot*%
%TF.FilePolarity,Positive*%
%FSLAX46Y46*%
G04 Gerber Fmt 4.6, Leading zero omitted, Abs format (unit mm)*
G04 Created by KiCad (PCBNEW 9.0.4-208-g72db7bfedc) date 2026-05-13 15:04:04*
%MOMM*%
%LPD*%
G01*
G04 APERTURE LIST*
%ADD10C,0.100000*%
%ADD11C,0.254000*%
%ADD12C,0.150000*%
%ADD13C,0.200000*%
%ADD14C,0.120000*%
%ADD15C,0.000000*%
%ADD16C,1.500000*%
%ADD17C,1.950000*%
G04 APERTURE END LIST*
D10*
X197001966Y-70024999D02*
X197035300Y-69991666D01*
X197035300Y-69991666D02*
X197068633Y-69891666D01*
X197068633Y-69891666D02*
X197068633Y-69824999D01*
X197068633Y-69824999D02*
X197035300Y-69724999D01*
X197035300Y-69724999D02*
X196968633Y-69658333D01*
X196968633Y-69658333D02*
X196901966Y-69624999D01*
X196901966Y-69624999D02*
X196768633Y-69591666D01*
X196768633Y-69591666D02*
X196668633Y-69591666D01*
X196668633Y-69591666D02*
X196535300Y-69624999D01*
X196535300Y-69624999D02*
X196468633Y-69658333D01*
X196468633Y-69658333D02*
X196401966Y-69724999D01*
X196401966Y-69724999D02*
X196368633Y-69824999D01*
X196368633Y-69824999D02*
X196368633Y-69891666D01*
X196368633Y-69891666D02*
X196401966Y-69991666D01*
X196401966Y-69991666D02*
X196435300Y-70024999D01*
X196435300Y-70291666D02*
X196401966Y-70324999D01*
X196401966Y-70324999D02*
X196368633Y-70391666D01*
X196368633Y-70391666D02*
X196368633Y-70558333D01*
X196368633Y-70558333D02*
X196401966Y-70624999D01*
X196401966Y-70624999D02*
X196435300Y-70658333D01*
X196435300Y-70658333D02*
X196501966Y-70691666D01*
X196501966Y-70691666D02*
X196568633Y-70691666D01*
X196568633Y-70691666D02*
X196668633Y-70658333D01*
X196668633Y-70658333D02*
X197068633Y-70258333D01*
X197068633Y-70258333D02*
X197068633Y-70691666D01*
X197068633Y-71358333D02*
X197068633Y-70958333D01*
X197068633Y-71158333D02*
X196368633Y-71158333D01*
X196368633Y-71158333D02*
X196468633Y-71091666D01*
X196468633Y-71091666D02*
X196535300Y-71025000D01*
X196535300Y-71025000D02*
X196568633Y-70958333D01*
D11*
X220023332Y-100304318D02*
X220023332Y-101211461D01*
X220023332Y-101211461D02*
X220083809Y-101392889D01*
X220083809Y-101392889D02*
X220204761Y-101513842D01*
X220204761Y-101513842D02*
X220386190Y-101574318D01*
X220386190Y-101574318D02*
X220507142Y-101574318D01*
X219479047Y-100425270D02*
X219418571Y-100364794D01*
X219418571Y-100364794D02*
X219297618Y-100304318D01*
X219297618Y-100304318D02*
X218995237Y-100304318D01*
X218995237Y-100304318D02*
X218874285Y-100364794D01*
X218874285Y-100364794D02*
X218813809Y-100425270D01*
X218813809Y-100425270D02*
X218753332Y-100546222D01*
X218753332Y-100546222D02*
X218753332Y-100667175D01*
X218753332Y-100667175D02*
X218813809Y-100848603D01*
X218813809Y-100848603D02*
X219539523Y-101574318D01*
X219539523Y-101574318D02*
X218753332Y-101574318D01*
D12*
X181954819Y-97041666D02*
X182669104Y-97041666D01*
X182669104Y-97041666D02*
X182811961Y-96994047D01*
X182811961Y-96994047D02*
X182907200Y-96898809D01*
X182907200Y-96898809D02*
X182954819Y-96755952D01*
X182954819Y-96755952D02*
X182954819Y-96660714D01*
X181954819Y-97994047D02*
X181954819Y-97517857D01*
X181954819Y-97517857D02*
X182431009Y-97470238D01*
X182431009Y-97470238D02*
X182383390Y-97517857D01*
X182383390Y-97517857D02*
X182335771Y-97613095D01*
X182335771Y-97613095D02*
X182335771Y-97851190D01*
X182335771Y-97851190D02*
X182383390Y-97946428D01*
X182383390Y-97946428D02*
X182431009Y-97994047D01*
X182431009Y-97994047D02*
X182526247Y-98041666D01*
X182526247Y-98041666D02*
X182764342Y-98041666D01*
X182764342Y-98041666D02*
X182859580Y-97994047D01*
X182859580Y-97994047D02*
X182907200Y-97946428D01*
X182907200Y-97946428D02*
X182954819Y-97851190D01*
X182954819Y-97851190D02*
X182954819Y-97613095D01*
X182954819Y-97613095D02*
X182907200Y-97517857D01*
X182907200Y-97517857D02*
X182859580Y-97470238D01*
X170083333Y-68974819D02*
X170083333Y-69689104D01*
X170083333Y-69689104D02*
X170130952Y-69831961D01*
X170130952Y-69831961D02*
X170226190Y-69927200D01*
X170226190Y-69927200D02*
X170369047Y-69974819D01*
X170369047Y-69974819D02*
X170464285Y-69974819D01*
X169702380Y-68974819D02*
X169083333Y-68974819D01*
X169083333Y-68974819D02*
X169416666Y-69355771D01*
X169416666Y-69355771D02*
X169273809Y-69355771D01*
X169273809Y-69355771D02*
X169178571Y-69403390D01*
X169178571Y-69403390D02*
X169130952Y-69451009D01*
X169130952Y-69451009D02*
X169083333Y-69546247D01*
X169083333Y-69546247D02*
X169083333Y-69784342D01*
X169083333Y-69784342D02*
X169130952Y-69879580D01*
X169130952Y-69879580D02*
X169178571Y-69927200D01*
X169178571Y-69927200D02*
X169273809Y-69974819D01*
X169273809Y-69974819D02*
X169559523Y-69974819D01*
X169559523Y-69974819D02*
X169654761Y-69927200D01*
X169654761Y-69927200D02*
X169702380Y-69879580D01*
D10*
X199291966Y-69919999D02*
X199325300Y-69886666D01*
X199325300Y-69886666D02*
X199358633Y-69786666D01*
X199358633Y-69786666D02*
X199358633Y-69719999D01*
X199358633Y-69719999D02*
X199325300Y-69619999D01*
X199325300Y-69619999D02*
X199258633Y-69553333D01*
X199258633Y-69553333D02*
X199191966Y-69519999D01*
X199191966Y-69519999D02*
X199058633Y-69486666D01*
X199058633Y-69486666D02*
X198958633Y-69486666D01*
X198958633Y-69486666D02*
X198825300Y-69519999D01*
X198825300Y-69519999D02*
X198758633Y-69553333D01*
X198758633Y-69553333D02*
X198691966Y-69619999D01*
X198691966Y-69619999D02*
X198658633Y-69719999D01*
X198658633Y-69719999D02*
X198658633Y-69786666D01*
X198658633Y-69786666D02*
X198691966Y-69886666D01*
X198691966Y-69886666D02*
X198725300Y-69919999D01*
X198725300Y-70186666D02*
X198691966Y-70219999D01*
X198691966Y-70219999D02*
X198658633Y-70286666D01*
X198658633Y-70286666D02*
X198658633Y-70453333D01*
X198658633Y-70453333D02*
X198691966Y-70519999D01*
X198691966Y-70519999D02*
X198725300Y-70553333D01*
X198725300Y-70553333D02*
X198791966Y-70586666D01*
X198791966Y-70586666D02*
X198858633Y-70586666D01*
X198858633Y-70586666D02*
X198958633Y-70553333D01*
X198958633Y-70553333D02*
X199358633Y-70153333D01*
X199358633Y-70153333D02*
X199358633Y-70586666D01*
X198725300Y-70853333D02*
X198691966Y-70886666D01*
X198691966Y-70886666D02*
X198658633Y-70953333D01*
X198658633Y-70953333D02*
X198658633Y-71120000D01*
X198658633Y-71120000D02*
X198691966Y-71186666D01*
X198691966Y-71186666D02*
X198725300Y-71220000D01*
X198725300Y-71220000D02*
X198791966Y-71253333D01*
X198791966Y-71253333D02*
X198858633Y-71253333D01*
X198858633Y-71253333D02*
X198958633Y-71220000D01*
X198958633Y-71220000D02*
X199358633Y-70820000D01*
X199358633Y-70820000D02*
X199358633Y-71253333D01*
%TO.C,S1*%
X90150000Y-78700000D02*
X94500000Y-78700000D01*
X90150000Y-85750000D02*
X90150000Y-78700000D01*
X95000000Y-85750000D02*
X90150000Y-85750000D01*
D13*
X96360000Y-87500000D02*
X96360000Y-87500000D01*
X96560000Y-87500000D02*
X96560000Y-87500000D01*
D10*
X101000000Y-85750000D02*
X101000000Y-78800000D01*
D13*
X96360000Y-87500000D02*
G75*
G02*
X96560000Y-87500000I100000J0D01*
G01*
X96560000Y-87500000D02*
G75*
G02*
X96360000Y-87500000I-100000J0D01*
G01*
D14*
%TO.C,C21*%
X195590000Y-74461252D02*
X195590000Y-73038748D01*
X197410000Y-74461252D02*
X197410000Y-73038748D01*
D13*
%TO.C,J2*%
X194485000Y-99900000D02*
X194485000Y-109100000D01*
X194485000Y-109100000D02*
X216515000Y-109100000D01*
D10*
X209310000Y-99400000D02*
X209310000Y-99400000D01*
X209310000Y-99500000D02*
X209310000Y-99500000D01*
D13*
X216515000Y-99900000D02*
X194485000Y-99900000D01*
X216515000Y-109100000D02*
X216515000Y-99900000D01*
D10*
X209310000Y-99400000D02*
G75*
G02*
X209310000Y-99500000I0J-50000D01*
G01*
X209310000Y-99500000D02*
G75*
G02*
X209310000Y-99400000I0J50000D01*
G01*
D14*
%TO.C,J5*%
X174390000Y-95140000D02*
X176300000Y-95140000D01*
X174390000Y-97050000D02*
X174390000Y-95140000D01*
X174700000Y-95450000D02*
X181550000Y-95450000D01*
X174700000Y-96750000D02*
X175000000Y-96750000D01*
X174700000Y-97500000D02*
X175000000Y-97500000D01*
X174700000Y-99050000D02*
X174700000Y-95450000D01*
X175000000Y-95750000D02*
X181250000Y-95750000D01*
X175000000Y-96750000D02*
X175000000Y-95750000D01*
X175000000Y-97500000D02*
X175000000Y-98600000D01*
X175000000Y-98600000D02*
X175300000Y-98600000D01*
X175300000Y-98600000D02*
X175300000Y-99050000D01*
X175300000Y-98600000D02*
X176500000Y-98600000D01*
X176500000Y-98600000D02*
X176500000Y-98900000D01*
X176500000Y-98900000D02*
X177250000Y-98900000D01*
X177250000Y-98600000D02*
X179000000Y-98600000D01*
X177250000Y-98900000D02*
X177250000Y-98600000D01*
X179000000Y-98600000D02*
X179000000Y-98900000D01*
X179000000Y-98900000D02*
X179750000Y-98900000D01*
X179750000Y-98600000D02*
X180950000Y-98600000D01*
X179750000Y-98900000D02*
X179750000Y-98600000D01*
X180950000Y-98600000D02*
X180950000Y-99050000D01*
X181250000Y-95750000D02*
X181250000Y-96750000D01*
X181250000Y-96750000D02*
X181550000Y-96750000D01*
X181250000Y-97500000D02*
X181250000Y-98600000D01*
X181250000Y-98600000D02*
X180950000Y-98600000D01*
X181550000Y-95450000D02*
X181550000Y-99050000D01*
X181550000Y-97500000D02*
X181250000Y-97500000D01*
X181550000Y-99050000D02*
X174700000Y-99050000D01*
%TO.C,J3*%
X168420000Y-62880000D02*
X171080000Y-62880000D01*
X168420000Y-65480000D02*
X168420000Y-62880000D01*
X168420000Y-65480000D02*
X171080000Y-65480000D01*
X169750000Y-68080000D02*
X171080000Y-68080000D01*
X171080000Y-65480000D02*
X171080000Y-62880000D01*
X171080000Y-68080000D02*
X171080000Y-66750000D01*
D15*
%TO.C,G\u002A\u002A\u002A*%
G36*
X156888211Y-80775333D02*
G01*
X156910587Y-80798008D01*
X156941956Y-80837631D01*
X156962542Y-80867749D01*
X156984973Y-80917841D01*
X156986409Y-80965715D01*
X156983804Y-80981979D01*
X156978223Y-80998633D01*
X156969055Y-80993125D01*
X156952945Y-80961838D01*
X156926539Y-80901155D01*
X156922731Y-80892161D01*
X156899656Y-80834277D01*
X156885105Y-80791692D01*
X156882086Y-80773071D01*
X156888211Y-80775333D01*
G37*
G36*
X152959810Y-79233751D02*
G01*
X152990758Y-79242069D01*
X152999578Y-79258227D01*
X152992948Y-79273852D01*
X152963854Y-79285021D01*
X152948031Y-79286991D01*
X152935159Y-79299991D01*
X152929433Y-79332335D01*
X152928130Y-79392194D01*
X152928077Y-79405107D01*
X152925247Y-79461959D01*
X152916894Y-79491136D01*
X152901336Y-79499367D01*
X152898108Y-79499155D01*
X152883895Y-79487835D01*
X152876601Y-79454424D01*
X152874543Y-79392194D01*
X152873886Y-79344725D01*
X152869553Y-79306109D01*
X152858772Y-79288931D01*
X152838819Y-79285021D01*
X152817986Y-79280048D01*
X152803094Y-79258227D01*
X152811589Y-79242280D01*
X152842091Y-79233840D01*
X152901336Y-79231434D01*
X152959810Y-79233751D01*
G37*
G36*
X156581121Y-80388290D02*
G01*
X156617539Y-80430733D01*
X156636281Y-80456528D01*
X156675172Y-80521272D01*
X156720061Y-80606235D01*
X156768114Y-80704941D01*
X156816496Y-80810913D01*
X156862376Y-80917674D01*
X156902918Y-81018746D01*
X156935289Y-81107653D01*
X156956657Y-81177919D01*
X156964186Y-81223066D01*
X156963400Y-81294514D01*
X156925744Y-81223066D01*
X156913550Y-81198522D01*
X156886559Y-81140776D01*
X156850856Y-81062093D01*
X156809037Y-80968420D01*
X156763697Y-80865703D01*
X156717433Y-80759888D01*
X156672841Y-80656922D01*
X156632517Y-80562751D01*
X156599058Y-80483322D01*
X156575059Y-80424581D01*
X156563117Y-80392475D01*
X156560825Y-80383824D01*
X156563026Y-80373223D01*
X156581121Y-80388290D01*
G37*
G36*
X156001941Y-83938597D02*
G01*
X156013143Y-83943836D01*
X156022272Y-83955375D01*
X156028610Y-83977801D01*
X156032663Y-84016081D01*
X156034934Y-84075184D01*
X156035928Y-84160075D01*
X156036147Y-84275723D01*
X156035569Y-84374807D01*
X156033837Y-84467686D01*
X156031160Y-84542483D01*
X156027754Y-84593317D01*
X156023831Y-84614307D01*
X156010184Y-84617333D01*
X155965520Y-84620313D01*
X155895996Y-84622137D01*
X155807714Y-84622664D01*
X155706778Y-84621750D01*
X155402040Y-84616877D01*
X155402040Y-84563291D01*
X155402040Y-84509704D01*
X155629782Y-84504705D01*
X155636799Y-84504547D01*
X155738069Y-84501011D01*
X155806903Y-84495633D01*
X155846382Y-84488053D01*
X155859585Y-84477912D01*
X155860150Y-84472599D01*
X155865796Y-84438256D01*
X155866089Y-84436463D01*
X155867863Y-84407214D01*
X155869683Y-84350808D01*
X155871350Y-84274528D01*
X155872666Y-84185656D01*
X155875387Y-83950919D01*
X155921561Y-83939330D01*
X155958254Y-83934473D01*
X156001941Y-83938597D01*
G37*
G36*
X152755281Y-79237451D02*
G01*
X152763420Y-79255840D01*
X152766738Y-79295701D01*
X152767370Y-79364158D01*
X152766724Y-79417258D01*
X152762944Y-79467170D01*
X152754654Y-79492392D01*
X152740577Y-79499367D01*
X152728427Y-79495340D01*
X152716526Y-79469529D01*
X152712030Y-79414521D01*
X152710276Y-79329676D01*
X152688848Y-79410056D01*
X152687042Y-79416625D01*
X152665343Y-79469852D01*
X152641625Y-79488112D01*
X152617819Y-79471219D01*
X152595858Y-79418987D01*
X152575030Y-79347538D01*
X152568493Y-79417606D01*
X152566797Y-79431354D01*
X152555377Y-79474133D01*
X152539628Y-79495009D01*
X152534405Y-79495317D01*
X152524385Y-79480192D01*
X152518942Y-79438468D01*
X152517300Y-79365647D01*
X152517454Y-79321522D01*
X152519326Y-79270190D01*
X152525069Y-79243335D01*
X152536818Y-79233857D01*
X152556710Y-79234657D01*
X152575630Y-79240783D01*
X152598440Y-79267044D01*
X152616796Y-79320745D01*
X152620281Y-79334072D01*
X152631912Y-79370011D01*
X152642341Y-79376404D01*
X152655064Y-79351601D01*
X152673578Y-79293952D01*
X152691623Y-79257324D01*
X152728579Y-79234657D01*
X152740188Y-79233409D01*
X152755281Y-79237451D01*
G37*
G36*
X156172676Y-79858988D02*
G01*
X156201736Y-79894550D01*
X156242501Y-79947142D01*
X156271625Y-79989261D01*
X156310281Y-80055130D01*
X156356445Y-80143150D01*
X156411508Y-80256094D01*
X156476861Y-80396737D01*
X156553897Y-80567852D01*
X156568742Y-80601207D01*
X156629768Y-80738219D01*
X156689671Y-80872565D01*
X156745773Y-80998248D01*
X156795397Y-81109273D01*
X156835865Y-81199645D01*
X156864501Y-81263368D01*
X156886937Y-81315213D01*
X156918418Y-81397074D01*
X156939454Y-81464563D01*
X156947117Y-81508972D01*
X156947001Y-81517044D01*
X156942420Y-81555666D01*
X156933234Y-81571378D01*
X156923742Y-81557031D01*
X156901281Y-81513547D01*
X156867710Y-81444544D01*
X156824754Y-81353675D01*
X156774141Y-81244591D01*
X156717594Y-81120946D01*
X156656840Y-80986392D01*
X156614912Y-80892984D01*
X156547918Y-80743831D01*
X156482174Y-80597569D01*
X156420353Y-80460141D01*
X156365128Y-80337487D01*
X156319173Y-80235548D01*
X156285159Y-80160267D01*
X156267921Y-80122179D01*
X156217825Y-80010960D01*
X156181985Y-79929515D01*
X156159975Y-79875719D01*
X156151370Y-79847448D01*
X156155745Y-79842579D01*
X156172676Y-79858988D01*
G37*
G36*
X154949945Y-83931040D02*
G01*
X155040624Y-83933434D01*
X155126962Y-83937039D01*
X155201112Y-83941634D01*
X155255230Y-83946999D01*
X155281470Y-83952915D01*
X155290047Y-83968606D01*
X155296414Y-84006187D01*
X155300672Y-84069049D01*
X155303055Y-84160664D01*
X155303798Y-84284504D01*
X155303285Y-84375528D01*
X155301580Y-84467916D01*
X155298896Y-84542488D01*
X155295456Y-84593275D01*
X155291482Y-84614307D01*
X155277836Y-84617333D01*
X155233172Y-84620313D01*
X155163647Y-84622137D01*
X155075365Y-84622664D01*
X154974429Y-84621750D01*
X154669691Y-84616877D01*
X154669691Y-84563291D01*
X154669691Y-84509704D01*
X154897433Y-84504705D01*
X155125176Y-84499706D01*
X155125176Y-84420445D01*
X155125176Y-84341184D01*
X154924227Y-84336133D01*
X154861593Y-84334451D01*
X154795231Y-84331621D01*
X154753950Y-84327064D01*
X154731415Y-84319323D01*
X154721292Y-84306937D01*
X154717249Y-84288447D01*
X154718789Y-84258321D01*
X154735111Y-84230669D01*
X154749754Y-84226300D01*
X154795786Y-84220683D01*
X154862839Y-84216781D01*
X154942089Y-84215252D01*
X155125176Y-84214978D01*
X155125176Y-84144063D01*
X155125176Y-84073148D01*
X154897433Y-84068149D01*
X154669691Y-84063150D01*
X154664139Y-84005711D01*
X154662850Y-83977685D01*
X154672780Y-83950466D01*
X154704509Y-83936746D01*
X154730307Y-83933315D01*
X154786941Y-83930760D01*
X154862769Y-83930075D01*
X154949945Y-83931040D01*
G37*
G36*
X156839944Y-84275613D02*
G01*
X156839385Y-84374835D01*
X156837709Y-84467642D01*
X156835121Y-84542336D01*
X156831828Y-84593045D01*
X156828036Y-84613900D01*
X156814604Y-84619859D01*
X156777358Y-84624802D01*
X156732361Y-84625114D01*
X156694022Y-84620936D01*
X156676751Y-84612412D01*
X156676509Y-84610876D01*
X156673956Y-84582174D01*
X156671242Y-84536497D01*
X156668166Y-84473980D01*
X156481657Y-84465049D01*
X156430548Y-84461860D01*
X156351539Y-84453846D01*
X156289578Y-84443666D01*
X156254002Y-84432650D01*
X156205801Y-84390644D01*
X156165979Y-84320684D01*
X156145095Y-84237441D01*
X156145270Y-84206047D01*
X156321941Y-84206047D01*
X156323207Y-84239361D01*
X156334543Y-84283332D01*
X156361640Y-84312208D01*
X156385435Y-84323981D01*
X156445858Y-84336122D01*
X156536777Y-84340014D01*
X156672216Y-84340014D01*
X156676493Y-84206047D01*
X156680769Y-84072081D01*
X156541054Y-84072081D01*
X156456405Y-84074840D01*
X156389813Y-84086429D01*
X156348656Y-84110050D01*
X156327757Y-84148868D01*
X156321941Y-84206047D01*
X156145270Y-84206047D01*
X156145575Y-84151288D01*
X156169843Y-84072602D01*
X156199467Y-84025855D01*
X156241287Y-83987761D01*
X156298672Y-83961928D01*
X156378282Y-83945476D01*
X156486774Y-83935528D01*
X156536262Y-83933070D01*
X156624344Y-83931175D01*
X156701868Y-83932401D01*
X156756314Y-83936694D01*
X156839944Y-83949235D01*
X156839944Y-84072081D01*
X156839944Y-84275613D01*
G37*
G36*
X155730012Y-79295570D02*
G01*
X155750397Y-79320842D01*
X155784902Y-79364821D01*
X155826833Y-79418987D01*
X155837442Y-79432883D01*
X155854662Y-79456358D01*
X155871695Y-79481557D01*
X155889787Y-79511046D01*
X155910182Y-79547394D01*
X155934126Y-79593168D01*
X155962864Y-79650936D01*
X155997641Y-79723265D01*
X156039702Y-79812724D01*
X156090292Y-79921879D01*
X156150656Y-80053299D01*
X156222040Y-80209551D01*
X156305689Y-80393202D01*
X156402847Y-80606821D01*
X156457822Y-80727730D01*
X156528092Y-80882276D01*
X156597076Y-81033986D01*
X156662073Y-81176923D01*
X156720383Y-81305151D01*
X156769307Y-81412731D01*
X156806145Y-81493728D01*
X156838133Y-81565059D01*
X156880544Y-81665132D01*
X156908736Y-81741312D01*
X156924408Y-81798388D01*
X156929255Y-81841147D01*
X156928823Y-81861392D01*
X156923379Y-81897298D01*
X156912391Y-81900935D01*
X156911715Y-81900157D01*
X156897435Y-81875293D01*
X156869784Y-81820603D01*
X156829919Y-81738580D01*
X156778996Y-81631719D01*
X156718173Y-81502514D01*
X156648606Y-81353458D01*
X156571451Y-81187047D01*
X156487867Y-81005774D01*
X156399008Y-80812134D01*
X156306033Y-80608621D01*
X156210098Y-80397728D01*
X156112360Y-80181951D01*
X156013975Y-79963783D01*
X155982527Y-79893810D01*
X155904704Y-79719797D01*
X155841423Y-79576843D01*
X155792272Y-79463980D01*
X155756838Y-79380239D01*
X155734708Y-79324651D01*
X155725471Y-79296249D01*
X155728712Y-79294062D01*
X155730012Y-79295570D01*
G37*
G36*
X154585845Y-81911345D02*
G01*
X154611160Y-81927647D01*
X154647127Y-81972277D01*
X154690200Y-82040841D01*
X154702758Y-82062826D01*
X154733242Y-82119136D01*
X154747393Y-82153624D01*
X154747250Y-82172791D01*
X154734855Y-82183142D01*
X154723567Y-82186259D01*
X154679463Y-82196047D01*
X154605690Y-82211380D01*
X154505516Y-82231611D01*
X154382207Y-82256092D01*
X154239034Y-82284176D01*
X154079262Y-82315216D01*
X153906160Y-82348564D01*
X153722996Y-82383574D01*
X153631326Y-82401039D01*
X153442470Y-82437085D01*
X153259862Y-82472024D01*
X153087624Y-82505062D01*
X152929878Y-82535406D01*
X152790744Y-82562262D01*
X152674344Y-82584837D01*
X152584799Y-82602338D01*
X152526231Y-82613970D01*
X152442558Y-82630069D01*
X152358127Y-82644666D01*
X152289157Y-82654879D01*
X152245380Y-82659143D01*
X152237010Y-82659081D01*
X152185576Y-82650940D01*
X152127482Y-82632904D01*
X152073120Y-82609345D01*
X152032881Y-82584635D01*
X152017159Y-82563143D01*
X152017415Y-82558183D01*
X152036396Y-82515686D01*
X152077359Y-82477794D01*
X152128820Y-82455568D01*
X152161248Y-82448680D01*
X152221849Y-82435402D01*
X152310969Y-82415645D01*
X152429399Y-82389233D01*
X152577928Y-82355988D01*
X152757348Y-82315733D01*
X152968447Y-82268292D01*
X153212017Y-82213487D01*
X153488848Y-82151141D01*
X153799729Y-82081077D01*
X153899507Y-82058648D01*
X154053499Y-82024296D01*
X154195057Y-81993036D01*
X154320447Y-81965675D01*
X154425935Y-81943018D01*
X154507790Y-81925873D01*
X154562277Y-81915045D01*
X154585665Y-81911340D01*
X154585845Y-81911345D01*
G37*
G36*
X153114087Y-79436425D02*
G01*
X153106915Y-79486722D01*
X153090730Y-79527619D01*
X153062096Y-79572389D01*
X153046758Y-79592064D01*
X152989616Y-79648082D01*
X152928130Y-79690684D01*
X152916313Y-79696752D01*
X152862609Y-79718580D01*
X152808024Y-79727076D01*
X152735504Y-79725304D01*
X152646880Y-79710953D01*
X152547453Y-79667546D01*
X152471666Y-79597937D01*
X152421140Y-79503751D01*
X152398299Y-79390590D01*
X152431453Y-79390590D01*
X152450809Y-79483813D01*
X152498320Y-79568298D01*
X152574125Y-79637597D01*
X152581119Y-79642101D01*
X152676704Y-79682775D01*
X152777095Y-79692138D01*
X152874812Y-79671667D01*
X152962373Y-79622840D01*
X153032297Y-79547133D01*
X153033157Y-79545829D01*
X153062109Y-79493131D01*
X153076139Y-79439018D01*
X153079683Y-79366592D01*
X153066729Y-79261898D01*
X153025849Y-79169918D01*
X152959171Y-79101486D01*
X152868872Y-79058783D01*
X152757130Y-79043986D01*
X152690048Y-79047015D01*
X152634950Y-79060030D01*
X152585829Y-79086926D01*
X152540953Y-79122952D01*
X152476662Y-79203713D01*
X152440116Y-79295074D01*
X152431453Y-79390590D01*
X152398299Y-79390590D01*
X152397496Y-79386612D01*
X152396076Y-79365641D01*
X152396064Y-79301217D01*
X152407091Y-79250274D01*
X152432272Y-79195710D01*
X152453327Y-79160504D01*
X152528028Y-79078297D01*
X152622645Y-79025689D01*
X152736479Y-79003123D01*
X152780809Y-79002515D01*
X152890408Y-79022502D01*
X152983974Y-79074380D01*
X153062096Y-79158430D01*
X153090251Y-79202303D01*
X153106670Y-79243133D01*
X153114002Y-79293075D01*
X153115682Y-79365400D01*
X153115655Y-79366592D01*
X153114087Y-79436425D01*
G37*
G36*
X154017722Y-83938214D02*
G01*
X154020394Y-83938656D01*
X154064721Y-83954074D01*
X154111580Y-83988287D01*
X154169059Y-84047114D01*
X154257878Y-84146226D01*
X154349987Y-84042416D01*
X154371894Y-84017936D01*
X154413639Y-83974739D01*
X154445527Y-83951185D01*
X154476727Y-83941661D01*
X154516409Y-83940555D01*
X154533659Y-83941274D01*
X154578213Y-83945947D01*
X154601038Y-83952818D01*
X154601232Y-83956863D01*
X154587337Y-83983048D01*
X154556589Y-84026653D01*
X154513667Y-84080821D01*
X154464351Y-84140108D01*
X154418662Y-84198634D01*
X154393949Y-84243177D01*
X154389851Y-84281933D01*
X154406008Y-84323096D01*
X154442060Y-84374864D01*
X154497647Y-84445431D01*
X154544493Y-84505549D01*
X154586290Y-84560747D01*
X154614612Y-84599986D01*
X154625035Y-84617299D01*
X154617733Y-84620887D01*
X154583814Y-84623510D01*
X154531582Y-84622276D01*
X154493069Y-84619415D01*
X154456993Y-84611747D01*
X154427109Y-84593976D01*
X154394061Y-84560056D01*
X154348494Y-84503940D01*
X154258861Y-84391002D01*
X154214206Y-84449983D01*
X154187935Y-84484391D01*
X154135746Y-84548968D01*
X154094815Y-84590498D01*
X154058849Y-84613550D01*
X154021553Y-84622694D01*
X153976636Y-84622501D01*
X153891019Y-84616877D01*
X154018527Y-84450944D01*
X154065691Y-84387099D01*
X154105239Y-84328436D01*
X154130498Y-84284782D01*
X154137418Y-84262553D01*
X154130858Y-84251136D01*
X154105278Y-84214594D01*
X154065797Y-84161923D01*
X154017712Y-84100303D01*
X153994125Y-84070166D01*
X153948750Y-84006538D01*
X153928422Y-83964414D01*
X153933142Y-83940908D01*
X153962908Y-83933136D01*
X154017722Y-83938214D01*
G37*
G36*
X152368014Y-83938047D02*
G01*
X152387145Y-83941302D01*
X152423019Y-83945679D01*
X152426169Y-83946854D01*
X152435154Y-83966067D01*
X152441856Y-84011282D01*
X152446625Y-84085732D01*
X152449813Y-84192651D01*
X152454782Y-84438256D01*
X152608908Y-84203976D01*
X152639900Y-84157240D01*
X152691437Y-84081241D01*
X152735191Y-84018862D01*
X152767295Y-83975565D01*
X152783881Y-83956812D01*
X152788918Y-83954261D01*
X152828835Y-83944243D01*
X152884234Y-83937900D01*
X152938554Y-83936554D01*
X152975237Y-83941527D01*
X152981257Y-83946598D01*
X152988680Y-83966743D01*
X152993913Y-84005531D01*
X152997267Y-84067231D01*
X152999052Y-84156108D01*
X152999578Y-84276430D01*
X152999025Y-84374901D01*
X152997351Y-84467664D01*
X152994763Y-84542336D01*
X152991466Y-84593041D01*
X152987670Y-84613900D01*
X152984709Y-84615894D01*
X152954493Y-84622955D01*
X152907290Y-84625808D01*
X152838819Y-84625808D01*
X152838819Y-84402531D01*
X152838806Y-84392779D01*
X152837593Y-84309552D01*
X152834688Y-84241830D01*
X152830496Y-84196351D01*
X152825422Y-84179855D01*
X152813493Y-84191469D01*
X152786301Y-84227982D01*
X152748655Y-84283423D01*
X152704853Y-84351668D01*
X152676850Y-84396369D01*
X152622126Y-84482385D01*
X152580044Y-84543819D01*
X152546153Y-84584669D01*
X152515997Y-84608929D01*
X152485123Y-84620597D01*
X152449077Y-84623667D01*
X152403406Y-84622137D01*
X152294023Y-84616877D01*
X152289171Y-84284021D01*
X152288125Y-84206911D01*
X152287555Y-84104137D01*
X152289321Y-84030097D01*
X152294418Y-83980424D01*
X152303840Y-83950750D01*
X152318583Y-83936707D01*
X152339643Y-83933928D01*
X152368014Y-83938047D01*
G37*
G36*
X153882515Y-84286427D02*
G01*
X153880807Y-84338165D01*
X153864542Y-84440114D01*
X153828670Y-84516952D01*
X153770186Y-84573710D01*
X153686087Y-84615418D01*
X153673773Y-84619671D01*
X153575182Y-84639591D01*
X153468080Y-84641187D01*
X153362945Y-84625868D01*
X153270252Y-84595042D01*
X153200477Y-84550117D01*
X153194216Y-84543789D01*
X153156362Y-84484037D01*
X153128306Y-84403216D01*
X153113324Y-84313635D01*
X153114441Y-84243313D01*
X153286777Y-84243313D01*
X153288736Y-84328968D01*
X153311888Y-84408137D01*
X153356001Y-84469514D01*
X153389590Y-84495491D01*
X153435966Y-84513848D01*
X153499719Y-84518635D01*
X153549450Y-84516134D01*
X153598617Y-84501836D01*
X153643437Y-84469514D01*
X153644354Y-84468688D01*
X153688115Y-84406917D01*
X153710912Y-84327545D01*
X153712511Y-84241877D01*
X153692677Y-84161219D01*
X153651176Y-84096879D01*
X153640627Y-84086935D01*
X153608563Y-84066437D01*
X153565717Y-84056693D01*
X153499719Y-84054219D01*
X153474123Y-84054456D01*
X153417310Y-84058991D01*
X153379480Y-84071970D01*
X153348262Y-84096879D01*
X153347381Y-84097767D01*
X153306247Y-84162477D01*
X153286777Y-84243313D01*
X153114441Y-84243313D01*
X153114691Y-84227606D01*
X153116634Y-84213870D01*
X153139634Y-84120516D01*
X153180050Y-84048922D01*
X153243774Y-83988159D01*
X153254479Y-83980097D01*
X153284304Y-83960446D01*
X153315038Y-83948123D01*
X153355383Y-83941429D01*
X153414042Y-83938660D01*
X153499719Y-83938115D01*
X153530428Y-83938150D01*
X153606568Y-83939218D01*
X153658459Y-83943051D01*
X153694803Y-83951351D01*
X153724304Y-83965820D01*
X153755664Y-83988159D01*
X153816998Y-84044134D01*
X153856520Y-84106668D01*
X153877018Y-84184279D01*
X153880118Y-84241877D01*
X153882515Y-84286427D01*
G37*
G36*
X155240061Y-79471694D02*
G01*
X155263232Y-79516747D01*
X155299274Y-79588510D01*
X155346772Y-79684111D01*
X155404309Y-79800683D01*
X155470469Y-79935354D01*
X155543837Y-80085255D01*
X155622995Y-80247516D01*
X155706529Y-80419268D01*
X155753709Y-80516415D01*
X155844350Y-80703025D01*
X155934516Y-80888632D01*
X156022048Y-81068788D01*
X156104784Y-81239045D01*
X156180561Y-81394957D01*
X156247220Y-81532074D01*
X156302598Y-81645950D01*
X156344535Y-81732137D01*
X156441772Y-81931838D01*
X156531680Y-82116571D01*
X156608041Y-82273869D01*
X156671891Y-82406173D01*
X156724271Y-82515924D01*
X156766219Y-82605564D01*
X156798772Y-82677533D01*
X156822969Y-82734274D01*
X156839849Y-82778226D01*
X156850451Y-82811833D01*
X156855812Y-82837534D01*
X156856972Y-82857771D01*
X156854968Y-82874985D01*
X156850839Y-82891617D01*
X156845624Y-82910110D01*
X156845432Y-82910853D01*
X156844022Y-82917916D01*
X156842718Y-82924196D01*
X156840722Y-82928132D01*
X156837238Y-82928161D01*
X156831468Y-82922723D01*
X156822616Y-82910253D01*
X156809885Y-82889191D01*
X156792479Y-82857973D01*
X156769600Y-82815039D01*
X156740452Y-82758825D01*
X156704237Y-82687770D01*
X156660160Y-82600311D01*
X156607424Y-82494886D01*
X156545231Y-82369933D01*
X156472785Y-82223890D01*
X156389289Y-82055195D01*
X156293946Y-81862285D01*
X156185960Y-81643599D01*
X156064533Y-81397574D01*
X155928870Y-81122648D01*
X155778173Y-80817258D01*
X155181247Y-79607654D01*
X155068366Y-79658484D01*
X155034816Y-79673575D01*
X154950191Y-79711573D01*
X154839927Y-79761024D01*
X154708549Y-79819903D01*
X154560582Y-79886185D01*
X154400550Y-79957843D01*
X154232977Y-80032854D01*
X154062388Y-80109192D01*
X153893308Y-80184832D01*
X153730262Y-80257748D01*
X153577773Y-80325916D01*
X153440367Y-80387310D01*
X153322568Y-80439904D01*
X153307500Y-80446621D01*
X153190285Y-80498364D01*
X153084437Y-80544218D01*
X152994190Y-80582415D01*
X152923781Y-80611186D01*
X152877444Y-80628762D01*
X152859416Y-80633372D01*
X152858420Y-80631562D01*
X152862000Y-80606768D01*
X152877945Y-80566407D01*
X152890318Y-80545372D01*
X152911472Y-80522839D01*
X152945051Y-80498806D01*
X152996161Y-80470141D01*
X153069911Y-80433710D01*
X153171407Y-80386380D01*
X153189715Y-80377956D01*
X153267338Y-80342174D01*
X153371821Y-80293936D01*
X153498945Y-80235194D01*
X153644494Y-80167897D01*
X153804251Y-80093995D01*
X153973999Y-80015439D01*
X154149521Y-79934178D01*
X154326600Y-79852163D01*
X154369962Y-79832098D01*
X154550049Y-79749276D01*
X154714082Y-79674671D01*
X154859745Y-79609296D01*
X154984720Y-79554165D01*
X155086690Y-79510292D01*
X155163336Y-79478691D01*
X155212341Y-79460376D01*
X155231388Y-79456360D01*
X155240061Y-79471694D01*
G37*
G36*
X155141357Y-79798112D02*
G01*
X155164041Y-79841004D01*
X155200650Y-79911879D01*
X155250130Y-80008651D01*
X155311424Y-80129232D01*
X155383478Y-80271533D01*
X155465235Y-80433467D01*
X155555640Y-80612945D01*
X155653638Y-80807879D01*
X155758174Y-81016182D01*
X155868191Y-81235766D01*
X155982634Y-81464542D01*
X156003417Y-81506121D01*
X156135304Y-81770043D01*
X156252224Y-82004216D01*
X156355077Y-82210548D01*
X156444764Y-82390950D01*
X156522184Y-82547332D01*
X156588237Y-82681602D01*
X156643824Y-82795671D01*
X156689845Y-82891448D01*
X156727200Y-82970843D01*
X156756789Y-83035765D01*
X156779513Y-83088125D01*
X156796270Y-83129831D01*
X156807963Y-83162794D01*
X156815490Y-83188922D01*
X156819752Y-83210127D01*
X156821649Y-83228316D01*
X156822082Y-83245400D01*
X156820821Y-83287614D01*
X156815176Y-83324274D01*
X156805803Y-83329908D01*
X156801448Y-83323437D01*
X156789876Y-83303043D01*
X156770970Y-83267890D01*
X156744103Y-83216753D01*
X156708654Y-83148406D01*
X156663998Y-83061625D01*
X156609511Y-82955185D01*
X156544570Y-82827861D01*
X156468552Y-82678429D01*
X156380832Y-82505664D01*
X156280786Y-82308340D01*
X156167792Y-82085233D01*
X156041226Y-81835118D01*
X155900463Y-81556771D01*
X155744881Y-81248965D01*
X155573855Y-80910478D01*
X155554750Y-80872691D01*
X155456807Y-80679993D01*
X155368058Y-80507140D01*
X155289434Y-80355881D01*
X155221868Y-80227964D01*
X155166289Y-80125136D01*
X155123630Y-80049147D01*
X155094820Y-80001745D01*
X155080792Y-79984678D01*
X155074599Y-79984970D01*
X155055106Y-79989911D01*
X155022072Y-80000869D01*
X154973884Y-80018500D01*
X154908926Y-80043460D01*
X154825583Y-80076402D01*
X154722242Y-80117983D01*
X154597287Y-80168858D01*
X154449103Y-80229682D01*
X154276076Y-80301110D01*
X154076590Y-80383797D01*
X153849031Y-80478400D01*
X153591784Y-80585572D01*
X153303235Y-80705969D01*
X153198429Y-80749592D01*
X153073833Y-80801077D01*
X152963033Y-80846443D01*
X152869856Y-80884146D01*
X152798128Y-80912638D01*
X152751678Y-80930373D01*
X152734331Y-80935806D01*
X152733662Y-80934536D01*
X152736464Y-80911327D01*
X152748076Y-80870161D01*
X152750114Y-80863507D01*
X152753667Y-80850366D01*
X152757810Y-80838751D01*
X152765019Y-80827447D01*
X152777767Y-80815241D01*
X152798530Y-80800918D01*
X152829780Y-80783264D01*
X152873992Y-80761065D01*
X152933641Y-80733107D01*
X153011200Y-80698176D01*
X153109145Y-80655058D01*
X153229948Y-80602539D01*
X153376085Y-80539405D01*
X153550029Y-80464441D01*
X153754255Y-80376433D01*
X153817785Y-80349040D01*
X153981851Y-80278280D01*
X154160999Y-80200994D01*
X154343258Y-80122350D01*
X154516655Y-80047511D01*
X154669217Y-79981645D01*
X154682498Y-79975912D01*
X154800402Y-79925170D01*
X154906930Y-79879595D01*
X154997805Y-79840996D01*
X155068746Y-79811183D01*
X155115473Y-79791969D01*
X155133707Y-79785161D01*
X155141357Y-79798112D01*
G37*
G36*
X155410714Y-78892053D02*
G01*
X155416500Y-78900547D01*
X155440523Y-78942862D01*
X155474072Y-79007969D01*
X155513518Y-79088689D01*
X155555234Y-79177848D01*
X155557825Y-79183505D01*
X155585036Y-79242619D01*
X155625699Y-79330620D01*
X155678387Y-79444430D01*
X155741669Y-79580968D01*
X155814118Y-79737156D01*
X155894304Y-79909915D01*
X155980799Y-80096164D01*
X156072173Y-80292824D01*
X156166999Y-80496817D01*
X156263847Y-80705063D01*
X156291818Y-80765210D01*
X156385116Y-80966099D01*
X156474116Y-81158131D01*
X156557618Y-81338694D01*
X156634420Y-81505175D01*
X156703323Y-81654959D01*
X156763126Y-81785435D01*
X156812627Y-81893988D01*
X156850626Y-81978007D01*
X156875924Y-82034877D01*
X156887318Y-82061985D01*
X156888073Y-82064141D01*
X156902218Y-82129038D01*
X156900816Y-82186183D01*
X156889098Y-82239535D01*
X156857314Y-82177580D01*
X156856351Y-82175694D01*
X156846025Y-82154823D01*
X156829463Y-82120522D01*
X156805855Y-82071071D01*
X156774391Y-82004750D01*
X156734260Y-81919837D01*
X156684652Y-81814614D01*
X156624757Y-81687360D01*
X156553763Y-81536353D01*
X156470861Y-81359875D01*
X156375240Y-81156205D01*
X156266090Y-80923623D01*
X156142601Y-80660407D01*
X156061309Y-80487178D01*
X155939372Y-80227642D01*
X155831240Y-79997944D01*
X155736143Y-79796492D01*
X155653310Y-79621692D01*
X155581971Y-79471950D01*
X155521356Y-79345672D01*
X155470694Y-79241266D01*
X155429215Y-79157137D01*
X155396149Y-79091693D01*
X155370725Y-79043339D01*
X155352173Y-79010482D01*
X155339723Y-78991529D01*
X155332603Y-78984886D01*
X155312297Y-78991144D01*
X155263733Y-79011980D01*
X155190778Y-79045648D01*
X155097161Y-79090364D01*
X154986613Y-79144348D01*
X154862865Y-79205815D01*
X154729646Y-79272984D01*
X154661977Y-79307350D01*
X154404648Y-79438035D01*
X154176947Y-79553651D01*
X153977080Y-79655070D01*
X153803250Y-79743166D01*
X153653662Y-79818811D01*
X153526523Y-79882879D01*
X153420036Y-79936244D01*
X153332408Y-79979778D01*
X153261842Y-80014355D01*
X153206544Y-80040848D01*
X153164718Y-80060131D01*
X153134571Y-80073075D01*
X153114306Y-80080556D01*
X153102129Y-80083445D01*
X153096245Y-80082617D01*
X153094859Y-80078944D01*
X153096175Y-80073299D01*
X153098399Y-80066557D01*
X153100676Y-80059297D01*
X153109772Y-80038617D01*
X153125124Y-80019022D01*
X153151030Y-79997697D01*
X153191786Y-79971829D01*
X153251691Y-79938602D01*
X153335040Y-79895203D01*
X153446132Y-79838817D01*
X153455553Y-79834056D01*
X153538550Y-79791899D01*
X153647096Y-79736484D01*
X153775787Y-79670584D01*
X153919218Y-79596973D01*
X154071983Y-79518424D01*
X154228677Y-79437712D01*
X154383896Y-79357609D01*
X154426821Y-79335437D01*
X154575661Y-79258596D01*
X154719693Y-79184295D01*
X154854430Y-79114847D01*
X154975385Y-79052561D01*
X155078069Y-78999749D01*
X155157995Y-78958723D01*
X155210675Y-78931793D01*
X155376554Y-78847398D01*
X155410714Y-78892053D01*
G37*
G36*
X155303849Y-79128279D02*
G01*
X155321141Y-79158886D01*
X155351119Y-79216797D01*
X155392127Y-79298659D01*
X155442511Y-79401119D01*
X155500615Y-79520824D01*
X155564785Y-79654421D01*
X155633364Y-79798558D01*
X155651964Y-79837823D01*
X155726610Y-79995280D01*
X155812921Y-80177195D01*
X155908014Y-80377494D01*
X156009002Y-80590102D01*
X156112999Y-80808946D01*
X156217121Y-81027951D01*
X156318482Y-81241045D01*
X156414195Y-81442153D01*
X156484449Y-81589955D01*
X156576296Y-81784172D01*
X156653918Y-81949758D01*
X156718228Y-82088768D01*
X156770139Y-82203252D01*
X156810564Y-82295264D01*
X156840417Y-82366857D01*
X156860610Y-82420083D01*
X156872056Y-82456996D01*
X156875668Y-82479647D01*
X156875506Y-82491028D01*
X156871486Y-82535619D01*
X156863760Y-82559751D01*
X156862328Y-82561352D01*
X156858650Y-82566295D01*
X156854936Y-82568089D01*
X156849253Y-82563106D01*
X156839666Y-82547715D01*
X156824242Y-82518288D01*
X156801048Y-82471195D01*
X156768149Y-82402806D01*
X156723612Y-82309491D01*
X156665504Y-82187623D01*
X156643404Y-82141329D01*
X156569548Y-81986853D01*
X156484179Y-81808586D01*
X156390295Y-81612771D01*
X156290892Y-81405650D01*
X156188968Y-81193466D01*
X156087519Y-80982461D01*
X155989541Y-80778878D01*
X155898032Y-80588959D01*
X155894652Y-80581946D01*
X155842522Y-80473708D01*
X155786290Y-80356781D01*
X155732503Y-80244783D01*
X155687706Y-80151336D01*
X155622841Y-80015974D01*
X155528227Y-79819173D01*
X155448364Y-79653964D01*
X155383018Y-79519866D01*
X155331952Y-79416403D01*
X155294931Y-79343093D01*
X155271721Y-79299459D01*
X155262085Y-79285021D01*
X155260221Y-79285401D01*
X155233011Y-79296275D01*
X155177123Y-79321175D01*
X155095382Y-79358791D01*
X154990612Y-79407814D01*
X154865635Y-79466933D01*
X154723277Y-79534841D01*
X154676179Y-79557365D01*
X154565268Y-79610284D01*
X154440274Y-79669799D01*
X154313274Y-79730162D01*
X154196343Y-79785626D01*
X154121126Y-79821332D01*
X154002848Y-79877655D01*
X153867081Y-79942454D01*
X153722060Y-80011794D01*
X153576022Y-80081739D01*
X153437201Y-80148356D01*
X153408392Y-80162178D01*
X153291723Y-80217759D01*
X153186803Y-80267127D01*
X153097710Y-80308406D01*
X153028524Y-80339720D01*
X152983322Y-80359194D01*
X152966184Y-80364952D01*
X152965541Y-80362793D01*
X152973073Y-80338914D01*
X152992977Y-80299540D01*
X152995371Y-80295485D01*
X153013505Y-80272214D01*
X153042018Y-80247502D01*
X153085310Y-80218624D01*
X153147785Y-80182853D01*
X153233845Y-80137463D01*
X153347891Y-80079726D01*
X153440796Y-80033332D01*
X153574579Y-79966804D01*
X153720689Y-79894404D01*
X153875959Y-79817682D01*
X154037220Y-79738190D01*
X154201304Y-79657478D01*
X154365044Y-79577094D01*
X154525271Y-79498591D01*
X154678817Y-79423518D01*
X154822515Y-79353424D01*
X154953196Y-79289861D01*
X155067692Y-79234379D01*
X155162835Y-79188528D01*
X155235458Y-79153858D01*
X155282392Y-79131919D01*
X155300469Y-79124261D01*
X155303849Y-79128279D01*
G37*
G36*
X154730822Y-81421614D02*
G01*
X154746781Y-81447460D01*
X154776878Y-81498908D01*
X154818844Y-81571910D01*
X154870410Y-81662419D01*
X154929307Y-81766385D01*
X154993265Y-81879762D01*
X155060014Y-81998501D01*
X155127287Y-82118554D01*
X155192813Y-82235874D01*
X155254322Y-82346411D01*
X155309547Y-82446118D01*
X155356217Y-82530947D01*
X155392064Y-82596851D01*
X155414817Y-82639780D01*
X155422208Y-82655687D01*
X155420811Y-82656281D01*
X155393591Y-82661537D01*
X155333677Y-82670884D01*
X155243311Y-82684016D01*
X155124733Y-82700630D01*
X154980184Y-82720420D01*
X154811903Y-82743082D01*
X154622131Y-82768311D01*
X154413109Y-82795804D01*
X154187076Y-82825254D01*
X153946273Y-82856358D01*
X153898560Y-82862506D01*
X153751595Y-82881575D01*
X153609666Y-82900173D01*
X153478854Y-82917492D01*
X153365240Y-82932723D01*
X153274903Y-82945059D01*
X153213924Y-82953692D01*
X153191886Y-82956900D01*
X153070377Y-82972606D01*
X152974759Y-82979856D01*
X152897267Y-82978021D01*
X152830140Y-82966471D01*
X152765612Y-82944577D01*
X152695922Y-82911710D01*
X152691724Y-82909546D01*
X152627313Y-82874822D01*
X152594957Y-82851472D01*
X152594333Y-82835990D01*
X152625118Y-82824867D01*
X152686990Y-82814598D01*
X152720966Y-82809632D01*
X152797904Y-82797983D01*
X152900127Y-82782188D01*
X153024071Y-82762819D01*
X153166175Y-82740450D01*
X153322875Y-82715651D01*
X153490607Y-82688995D01*
X153665809Y-82661054D01*
X153844919Y-82632399D01*
X154024372Y-82603604D01*
X154200606Y-82575239D01*
X154370058Y-82547877D01*
X154529165Y-82522091D01*
X154674364Y-82498451D01*
X154802092Y-82477531D01*
X154908786Y-82459902D01*
X154990883Y-82446135D01*
X155044820Y-82436805D01*
X155067034Y-82432481D01*
X155069625Y-82431626D01*
X155080336Y-82425831D01*
X155084903Y-82415139D01*
X155081640Y-82395839D01*
X155068860Y-82364218D01*
X155044876Y-82316563D01*
X155008000Y-82249160D01*
X154956547Y-82158296D01*
X154888829Y-82040260D01*
X154843240Y-81961693D01*
X154785690Y-81864622D01*
X154735189Y-81781829D01*
X154694364Y-81717523D01*
X154665840Y-81675912D01*
X154652246Y-81661206D01*
X154638388Y-81664128D01*
X154592186Y-81675062D01*
X154516417Y-81693444D01*
X154413876Y-81718584D01*
X154287356Y-81749791D01*
X154139653Y-81786374D01*
X153973560Y-81827641D01*
X153791871Y-81872903D01*
X153597381Y-81921467D01*
X153392884Y-81972643D01*
X153222872Y-82015164D01*
X153027127Y-82063940D01*
X152843966Y-82109385D01*
X152676147Y-82150823D01*
X152526427Y-82187582D01*
X152397563Y-82218986D01*
X152292313Y-82244362D01*
X152213434Y-82263036D01*
X152163682Y-82274332D01*
X152145816Y-82277578D01*
X152146811Y-82268263D01*
X152159216Y-82234392D01*
X152181202Y-82185508D01*
X152222574Y-82099423D01*
X153472783Y-81756367D01*
X153656018Y-81706173D01*
X153851285Y-81652881D01*
X154033903Y-81603247D01*
X154201147Y-81558002D01*
X154350294Y-81517876D01*
X154478621Y-81483597D01*
X154583404Y-81455898D01*
X154661919Y-81435507D01*
X154711443Y-81423154D01*
X154729253Y-81419571D01*
X154730822Y-81421614D01*
G37*
G36*
X154820202Y-80971292D02*
G01*
X154832196Y-80980397D01*
X154848720Y-80999771D01*
X154871010Y-81031536D01*
X154900304Y-81077811D01*
X154937840Y-81140717D01*
X154984853Y-81222375D01*
X155042582Y-81324905D01*
X155112263Y-81450427D01*
X155195133Y-81601061D01*
X155292430Y-81778929D01*
X155405390Y-81986150D01*
X155440530Y-82050721D01*
X155535002Y-82224631D01*
X155623870Y-82388684D01*
X155705695Y-82540193D01*
X155779035Y-82676472D01*
X155842451Y-82794834D01*
X155894501Y-82892592D01*
X155933744Y-82967060D01*
X155958740Y-83015552D01*
X155968048Y-83035379D01*
X155967194Y-83039894D01*
X155956506Y-83047037D01*
X155931617Y-83054197D01*
X155889467Y-83061768D01*
X155826997Y-83070141D01*
X155741148Y-83079710D01*
X155628859Y-83090867D01*
X155487073Y-83104006D01*
X155312729Y-83119518D01*
X155229385Y-83126844D01*
X155044595Y-83143128D01*
X154851309Y-83160206D01*
X154658345Y-83177297D01*
X154474520Y-83193621D01*
X154308649Y-83208395D01*
X154169550Y-83220838D01*
X154107042Y-83226430D01*
X153938191Y-83241197D01*
X153799613Y-83252415D01*
X153687329Y-83260020D01*
X153597358Y-83263947D01*
X153525721Y-83264129D01*
X153468437Y-83260502D01*
X153421527Y-83253000D01*
X153381010Y-83241557D01*
X153342906Y-83226107D01*
X153303235Y-83206587D01*
X153286462Y-83197886D01*
X153235535Y-83170163D01*
X153212020Y-83153220D01*
X153212057Y-83143274D01*
X153231786Y-83136541D01*
X153241797Y-83134965D01*
X153285594Y-83129469D01*
X153360189Y-83120783D01*
X153462562Y-83109238D01*
X153589694Y-83095166D01*
X153738566Y-83078897D01*
X153906159Y-83060763D01*
X154089453Y-83041094D01*
X154285430Y-83020222D01*
X154491069Y-82998477D01*
X154615107Y-82985381D01*
X154813469Y-82964327D01*
X154999479Y-82944445D01*
X155170241Y-82926055D01*
X155322856Y-82909473D01*
X155454428Y-82895016D01*
X155562058Y-82883002D01*
X155642850Y-82873747D01*
X155693906Y-82867569D01*
X155712328Y-82864786D01*
X155712365Y-82864725D01*
X155704684Y-82847429D01*
X155681256Y-82802121D01*
X155643738Y-82731845D01*
X155593789Y-82639647D01*
X155533066Y-82528570D01*
X155463226Y-82401660D01*
X155385927Y-82261961D01*
X155302826Y-82112519D01*
X155222980Y-81969237D01*
X155141406Y-81822770D01*
X155065583Y-81686550D01*
X154997454Y-81564069D01*
X154938961Y-81458819D01*
X154892044Y-81374292D01*
X154858647Y-81313980D01*
X154840709Y-81281375D01*
X154820921Y-81248782D01*
X154790848Y-81211276D01*
X154767933Y-81196585D01*
X154754623Y-81199517D01*
X154709126Y-81211812D01*
X154634360Y-81232942D01*
X154533122Y-81262089D01*
X154408211Y-81298434D01*
X154262426Y-81341159D01*
X154098566Y-81389447D01*
X153919427Y-81442479D01*
X153727810Y-81499437D01*
X153526512Y-81559502D01*
X153367826Y-81606830D01*
X153175052Y-81664010D01*
X152994630Y-81717180D01*
X152829293Y-81765552D01*
X152681770Y-81808340D01*
X152554795Y-81844755D01*
X152451098Y-81874012D01*
X152373412Y-81895322D01*
X152324467Y-81907899D01*
X152306996Y-81910954D01*
X152306303Y-81903576D01*
X152315173Y-81869643D01*
X152334205Y-81824527D01*
X152357168Y-81781901D01*
X152377836Y-81755440D01*
X152399151Y-81745345D01*
X152449553Y-81726189D01*
X152522713Y-81700433D01*
X152612750Y-81670144D01*
X152713784Y-81637388D01*
X152794185Y-81611751D01*
X152903939Y-81576704D01*
X153037972Y-81533868D01*
X153191407Y-81484804D01*
X153359367Y-81431073D01*
X153536974Y-81374233D01*
X153719350Y-81315845D01*
X153901618Y-81257470D01*
X153953159Y-81240966D01*
X154121027Y-81187324D01*
X154278324Y-81137219D01*
X154421700Y-81091709D01*
X154547808Y-81051851D01*
X154653299Y-81018699D01*
X154734825Y-80993312D01*
X154789037Y-80976745D01*
X154812588Y-80970055D01*
X154820202Y-80971292D01*
G37*
G36*
X154934407Y-80555197D02*
G01*
X154959387Y-80582596D01*
X154998218Y-80641732D01*
X155050466Y-80731908D01*
X155115694Y-80852426D01*
X155146239Y-80910227D01*
X155202605Y-81016876D01*
X155270106Y-81144577D01*
X155345442Y-81287089D01*
X155425313Y-81438169D01*
X155506420Y-81591577D01*
X155585462Y-81741068D01*
X155615367Y-81797627D01*
X155706172Y-81969386D01*
X155804304Y-82155033D01*
X155904959Y-82345473D01*
X156003330Y-82531614D01*
X156094610Y-82704362D01*
X156173995Y-82854624D01*
X156219689Y-82941727D01*
X156281134Y-83060929D01*
X156334839Y-83167587D01*
X156378967Y-83257918D01*
X156411681Y-83328137D01*
X156431143Y-83374463D01*
X156435516Y-83393112D01*
X156418016Y-83396826D01*
X156368393Y-83402128D01*
X156290973Y-83408422D01*
X156189893Y-83415423D01*
X156069291Y-83422847D01*
X155933306Y-83430407D01*
X155786076Y-83437820D01*
X155748710Y-83439616D01*
X155562854Y-83448769D01*
X155360808Y-83459028D01*
X155152949Y-83469845D01*
X154949651Y-83480678D01*
X154761291Y-83490981D01*
X154598242Y-83500208D01*
X154541243Y-83503453D01*
X154404713Y-83510766D01*
X154279444Y-83516847D01*
X154170315Y-83521498D01*
X154082204Y-83524521D01*
X154019991Y-83525720D01*
X153988554Y-83524896D01*
X153978163Y-83523094D01*
X153932903Y-83509338D01*
X153881194Y-83487456D01*
X153830946Y-83461758D01*
X153790072Y-83436550D01*
X153766483Y-83416142D01*
X153768091Y-83404843D01*
X153769023Y-83404588D01*
X153797373Y-83400790D01*
X153854882Y-83395466D01*
X153935589Y-83389090D01*
X154033534Y-83382135D01*
X154142757Y-83375075D01*
X154276239Y-83366771D01*
X154487328Y-83353340D01*
X154699149Y-83339524D01*
X154908670Y-83325545D01*
X155112857Y-83311622D01*
X155308681Y-83297975D01*
X155493107Y-83284824D01*
X155663105Y-83272389D01*
X155815642Y-83260889D01*
X155947687Y-83250545D01*
X156056206Y-83241577D01*
X156138169Y-83234204D01*
X156190543Y-83228646D01*
X156210295Y-83225124D01*
X156211373Y-83213427D01*
X156199785Y-83177567D01*
X156175871Y-83128865D01*
X156165368Y-83109782D01*
X156136530Y-83056730D01*
X156093875Y-82977850D01*
X156039241Y-82876566D01*
X155974468Y-82756306D01*
X155901395Y-82620496D01*
X155821862Y-82472562D01*
X155737709Y-82315930D01*
X155650775Y-82154026D01*
X155562899Y-81990278D01*
X155475922Y-81828109D01*
X155391682Y-81670949D01*
X155312019Y-81522221D01*
X155238774Y-81385353D01*
X155173784Y-81263771D01*
X155118890Y-81160900D01*
X155075931Y-81080168D01*
X155031081Y-80996386D01*
X154985218Y-80912245D01*
X154946718Y-80843244D01*
X154918654Y-80794884D01*
X154904100Y-80772664D01*
X154903482Y-80772071D01*
X154888880Y-80768738D01*
X154858493Y-80772494D01*
X154809356Y-80784191D01*
X154738505Y-80804682D01*
X154642974Y-80834821D01*
X154519799Y-80875460D01*
X154366014Y-80927452D01*
X154262075Y-80962868D01*
X154099951Y-81018114D01*
X153918397Y-81079981D01*
X153725631Y-81145671D01*
X153529873Y-81212382D01*
X153339341Y-81277313D01*
X153162252Y-81337664D01*
X153104067Y-81357474D01*
X152958373Y-81406907D01*
X152824518Y-81452081D01*
X152706162Y-81491776D01*
X152606966Y-81524772D01*
X152530587Y-81549851D01*
X152480686Y-81565793D01*
X152460922Y-81571378D01*
X152457760Y-81562465D01*
X152464410Y-81531704D01*
X152478959Y-81490400D01*
X152497028Y-81450622D01*
X152514239Y-81424435D01*
X152517766Y-81422379D01*
X152549047Y-81409123D01*
X152609487Y-81385559D01*
X152695791Y-81352875D01*
X152804667Y-81312260D01*
X152932820Y-81264901D01*
X153076958Y-81211987D01*
X153233788Y-81154706D01*
X153400015Y-81094246D01*
X153572348Y-81031795D01*
X153747492Y-80968541D01*
X153922155Y-80905672D01*
X154093043Y-80844377D01*
X154256862Y-80785844D01*
X154410320Y-80731260D01*
X154550123Y-80681814D01*
X154672979Y-80638693D01*
X154775593Y-80603087D01*
X154854673Y-80576183D01*
X154906924Y-80559170D01*
X154929055Y-80553234D01*
X154934407Y-80555197D01*
G37*
G36*
X155035606Y-80165148D02*
G01*
X155044762Y-80174125D01*
X155059372Y-80194854D01*
X155080325Y-80229014D01*
X155108506Y-80278282D01*
X155144802Y-80344338D01*
X155190099Y-80428860D01*
X155245285Y-80533527D01*
X155311245Y-80660016D01*
X155388867Y-80810006D01*
X155479037Y-80985177D01*
X155582641Y-81187205D01*
X155700567Y-81417770D01*
X155833700Y-81678551D01*
X155841841Y-81694506D01*
X155913611Y-81834984D01*
X155981904Y-81968340D01*
X156044599Y-82090454D01*
X156099575Y-82197207D01*
X156144710Y-82284480D01*
X156177884Y-82348153D01*
X156196975Y-82384106D01*
X156198617Y-82387110D01*
X156237348Y-82459298D01*
X156285156Y-82550443D01*
X156339925Y-82656319D01*
X156399535Y-82772698D01*
X156461866Y-82895354D01*
X156524800Y-83020061D01*
X156586218Y-83142590D01*
X156644000Y-83258717D01*
X156696029Y-83364213D01*
X156740184Y-83454853D01*
X156774347Y-83526409D01*
X156796398Y-83574655D01*
X156804220Y-83595364D01*
X156802722Y-83608791D01*
X156790016Y-83632197D01*
X156785572Y-83633098D01*
X156751314Y-83635824D01*
X156686787Y-83639254D01*
X156595826Y-83643235D01*
X156482261Y-83647616D01*
X156349925Y-83652246D01*
X156202651Y-83656973D01*
X156044271Y-83661647D01*
X156044182Y-83661650D01*
X155867029Y-83666732D01*
X155684945Y-83672095D01*
X155504702Y-83677530D01*
X155333074Y-83682827D01*
X155176836Y-83687778D01*
X155042761Y-83692173D01*
X154937623Y-83695804D01*
X154787516Y-83701185D01*
X154660815Y-83705536D01*
X154561745Y-83708463D01*
X154486171Y-83709872D01*
X154429958Y-83709669D01*
X154388971Y-83707760D01*
X154359075Y-83704051D01*
X154336135Y-83698447D01*
X154316017Y-83690856D01*
X154294585Y-83681182D01*
X154223137Y-83648464D01*
X154392827Y-83636818D01*
X154414663Y-83635463D01*
X154484525Y-83631853D01*
X154583067Y-83627360D01*
X154705533Y-83622178D01*
X154847168Y-83616499D01*
X155003216Y-83610516D01*
X155168919Y-83604423D01*
X155339522Y-83598412D01*
X155340529Y-83598377D01*
X155591677Y-83589676D01*
X155809423Y-83581998D01*
X155996066Y-83575228D01*
X156153899Y-83569250D01*
X156285221Y-83563948D01*
X156392327Y-83559207D01*
X156477515Y-83554910D01*
X156543079Y-83550943D01*
X156591317Y-83547188D01*
X156624526Y-83543531D01*
X156645001Y-83539856D01*
X156655038Y-83536046D01*
X156656935Y-83531986D01*
X156653689Y-83525251D01*
X156635706Y-83489859D01*
X156602999Y-83426195D01*
X156556683Y-83336413D01*
X156497875Y-83222668D01*
X156427691Y-83087114D01*
X156347248Y-82931908D01*
X156257663Y-82759203D01*
X156160052Y-82571155D01*
X156055532Y-82369919D01*
X155945219Y-82157649D01*
X155830230Y-81936501D01*
X155818168Y-81913313D01*
X155665796Y-81620950D01*
X155528354Y-81358340D01*
X155405972Y-81125723D01*
X155298778Y-80923336D01*
X155206899Y-80751419D01*
X155130463Y-80610208D01*
X155069599Y-80499943D01*
X155024435Y-80420861D01*
X154995099Y-80373202D01*
X154981718Y-80357204D01*
X154971970Y-80358894D01*
X154931518Y-80370948D01*
X154867718Y-80392699D01*
X154787032Y-80421906D01*
X154695924Y-80456328D01*
X154661032Y-80469745D01*
X154555894Y-80509978D01*
X154429992Y-80557950D01*
X154292328Y-80610240D01*
X154151904Y-80663426D01*
X154017722Y-80714087D01*
X153922215Y-80750108D01*
X153768480Y-80808174D01*
X153599075Y-80872237D01*
X153424288Y-80938403D01*
X153254406Y-81002779D01*
X153099718Y-81061473D01*
X153055937Y-81078059D01*
X152933770Y-81123907D01*
X152824125Y-81164426D01*
X152731167Y-81198119D01*
X152659060Y-81223488D01*
X152611971Y-81239036D01*
X152594063Y-81243266D01*
X152593244Y-81239110D01*
X152600689Y-81210994D01*
X152618959Y-81167340D01*
X152651266Y-81098826D01*
X153830169Y-80629340D01*
X153982129Y-80568944D01*
X154170278Y-80494514D01*
X154346923Y-80425018D01*
X154509359Y-80361503D01*
X154654877Y-80305013D01*
X154780771Y-80256594D01*
X154884335Y-80217290D01*
X154962862Y-80188148D01*
X155013645Y-80170211D01*
X155033976Y-80164526D01*
X155035606Y-80165148D01*
G37*
D14*
%TO.C,C22*%
X198265000Y-73511252D02*
X198265000Y-72988748D01*
X199735000Y-73511252D02*
X199735000Y-72988748D01*
%TD*%
D16*
%TO.C,S1*%
X96500000Y-84500000D03*
X96500000Y-80000000D03*
D17*
X99000000Y-85750000D03*
X99000000Y-78750000D03*
%TD*%
M02*
