%TF.GenerationSoftware,KiCad,Pcbnew,9.0.4-208-g72db7bfedc*%
%TF.CreationDate,2026-05-13T15:04:05+05:30*%
%TF.ProjectId,AIR QUALITY LEDS,41495220-5155-4414-9c49-5459204c4544,rev?*%
%TF.SameCoordinates,Original*%
%TF.FileFunction,Soldermask,Top*%
%TF.FilePolarity,Negative*%
%FSLAX46Y46*%
G04 Gerber Fmt 4.6, Leading zero omitted, Abs format (unit mm)*
G04 Created by KiCad (PCBNEW 9.0.4-208-g72db7bfedc) date 2026-05-13 15:04:05*
%MOMM*%
%LPD*%
G01*
G04 APERTURE LIST*
G04 Aperture macros list*
%AMRoundRect*
0 Rectangle with rounded corners*
0 $1 Rounding radius*
0 $2 $3 $4 $5 $6 $7 $8 $9 X,Y pos of 4 corners*
0 Add a 4 corners polygon primitive as box body*
4,1,4,$2,$3,$4,$5,$6,$7,$8,$9,$2,$3,0*
0 Add four circle primitives for the rounded corners*
1,1,$1+$1,$2,$3*
1,1,$1+$1,$4,$5*
1,1,$1+$1,$6,$7*
1,1,$1+$1,$8,$9*
0 Add four rect primitives between the rounded corners*
20,1,$1+$1,$2,$3,$4,$5,0*
20,1,$1+$1,$4,$5,$6,$7,0*
20,1,$1+$1,$6,$7,$8,$9,0*
20,1,$1+$1,$8,$9,$2,$3,0*%
G04 Aperture macros list end*
%ADD10RoundRect,0.250000X0.262500X0.450000X-0.262500X0.450000X-0.262500X-0.450000X0.262500X-0.450000X0*%
%ADD11RoundRect,0.250000X-0.262500X-0.450000X0.262500X-0.450000X0.262500X0.450000X-0.262500X0.450000X0*%
%ADD12RoundRect,0.250000X0.650000X-0.325000X0.650000X0.325000X-0.650000X0.325000X-0.650000X-0.325000X0*%
%ADD13R,1.300000X0.600000*%
%ADD14RoundRect,0.250000X0.312500X0.625000X-0.312500X0.625000X-0.312500X-0.625000X0.312500X-0.625000X0*%
%ADD15RoundRect,0.250000X-0.450000X0.262500X-0.450000X-0.262500X0.450000X-0.262500X0.450000X0.262500X0*%
%ADD16R,1.500000X0.900000*%
%ADD17R,0.900000X1.500000*%
%ADD18R,0.900000X0.900000*%
%ADD19RoundRect,0.250000X-0.250000X-0.475000X0.250000X-0.475000X0.250000X0.475000X-0.250000X0.475000X0*%
%ADD20RoundRect,0.250000X0.475000X-0.250000X0.475000X0.250000X-0.475000X0.250000X-0.475000X-0.250000X0*%
%ADD21R,1.800000X1.800000*%
%ADD22C,1.800000*%
%ADD23C,3.000000*%
%ADD24RoundRect,0.150000X0.587500X0.150000X-0.587500X0.150000X-0.587500X-0.150000X0.587500X-0.150000X0*%
%ADD25RoundRect,0.250000X0.450000X-0.262500X0.450000X0.262500X-0.450000X0.262500X-0.450000X-0.262500X0*%
%ADD26RoundRect,0.150000X-0.150000X0.587500X-0.150000X-0.587500X0.150000X-0.587500X0.150000X0.587500X0*%
%ADD27RoundRect,0.150000X0.150000X-0.587500X0.150000X0.587500X-0.150000X0.587500X-0.150000X-0.587500X0*%
%ADD28RoundRect,0.250000X0.625000X-0.312500X0.625000X0.312500X-0.625000X0.312500X-0.625000X-0.312500X0*%
%ADD29RoundRect,0.250000X-0.650000X0.325000X-0.650000X-0.325000X0.650000X-0.325000X0.650000X0.325000X0*%
%ADD30RoundRect,0.250000X-0.625000X0.312500X-0.625000X-0.312500X0.625000X-0.312500X0.625000X0.312500X0*%
%ADD31RoundRect,0.250000X-0.312500X-0.625000X0.312500X-0.625000X0.312500X0.625000X-0.312500X0.625000X0*%
%ADD32R,1.100000X1.100000*%
%ADD33C,1.100000*%
%ADD34RoundRect,0.250000X-0.475000X0.250000X-0.475000X-0.250000X0.475000X-0.250000X0.475000X0.250000X0*%
%ADD35R,1.200000X0.750000*%
%ADD36R,2.000000X2.000000*%
%ADD37C,2.000000*%
%ADD38RoundRect,0.250000X0.650000X-0.250000X0.650000X0.250000X-0.650000X0.250000X-0.650000X-0.250000X0*%
%ADD39R,1.820000X1.160000*%
%ADD40R,3.430000X0.850000*%
%ADD41R,1.200000X0.600000*%
%ADD42R,0.850000X2.200000*%
%ADD43R,1.075000X0.500000*%
%ADD44R,2.150000X2.200000*%
%ADD45C,1.600000*%
%ADD46RoundRect,0.250000X0.250000X0.475000X-0.250000X0.475000X-0.250000X-0.475000X0.250000X-0.475000X0*%
%ADD47R,0.300000X0.475000*%
%ADD48RoundRect,0.250000X-0.325000X-0.650000X0.325000X-0.650000X0.325000X0.650000X-0.325000X0.650000X0*%
%ADD49R,4.500000X1.550000*%
%ADD50C,0.800000*%
%ADD51R,1.250000X0.600000*%
%ADD52R,1.250000X0.300000*%
%ADD53C,2.565000*%
%ADD54RoundRect,0.150000X0.725000X0.150000X-0.725000X0.150000X-0.725000X-0.150000X0.725000X-0.150000X0*%
%ADD55C,1.303000*%
%ADD56RoundRect,0.250000X0.325000X0.650000X-0.325000X0.650000X-0.325000X-0.650000X0.325000X-0.650000X0*%
%ADD57R,0.600000X1.250000*%
%ADD58R,1.200000X1.200000*%
%ADD59C,1.200000*%
%ADD60R,0.750000X1.200000*%
%ADD61R,0.650000X1.950000*%
%ADD62C,1.500000*%
%ADD63C,1.950000*%
%ADD64RoundRect,0.225000X-0.225000X-0.475000X0.225000X-0.475000X0.225000X0.475000X-0.225000X0.475000X0*%
%ADD65O,0.900000X1.400000*%
%ADD66R,1.700000X1.700000*%
%ADD67C,1.700000*%
G04 APERTURE END LIST*
D10*
%TO.C,R1*%
X213500000Y-65750000D03*
X211675000Y-65750000D03*
%TD*%
D11*
%TO.C,R23*%
X167425000Y-96000000D03*
X169250000Y-96000000D03*
%TD*%
D12*
%TO.C,C23*%
X204500000Y-87450000D03*
X204500000Y-84500000D03*
%TD*%
D13*
%TO.C,Q3*%
X171150000Y-96050000D03*
X171150000Y-97950000D03*
X173250000Y-97000000D03*
%TD*%
D11*
%TO.C,R27*%
X151057500Y-62260000D03*
X152882500Y-62260000D03*
%TD*%
D14*
%TO.C,R15*%
X200250000Y-93000000D03*
X197325000Y-93000000D03*
%TD*%
D15*
%TO.C,R36*%
X170500000Y-89077500D03*
X170500000Y-90902500D03*
%TD*%
D16*
%TO.C,IC1*%
X106250000Y-67490000D03*
X106250000Y-68760000D03*
X106250000Y-70030000D03*
X106250000Y-71300000D03*
X106250000Y-72570000D03*
X106250000Y-73840000D03*
X106250000Y-75110000D03*
X106250000Y-76380000D03*
X106250000Y-77650000D03*
X106250000Y-78920000D03*
X106250000Y-80190000D03*
X106250000Y-81460000D03*
X106250000Y-82730000D03*
X106250000Y-84000000D03*
D17*
X108015000Y-85250000D03*
X109285000Y-85250000D03*
X110555000Y-85250000D03*
X111825000Y-85250000D03*
X113095000Y-85250000D03*
X114365000Y-85250000D03*
X115635000Y-85250000D03*
X116905000Y-85250000D03*
X118175000Y-85250000D03*
X119445000Y-85250000D03*
X120715000Y-85250000D03*
X121985000Y-85250000D03*
D16*
X123750000Y-84000000D03*
X123750000Y-82730000D03*
X123750000Y-81460000D03*
X123750000Y-80190000D03*
X123750000Y-78920000D03*
X123750000Y-77650000D03*
X123750000Y-76380000D03*
X123750000Y-75110000D03*
X123750000Y-73840000D03*
X123750000Y-72570000D03*
X123750000Y-71300000D03*
X123750000Y-70030000D03*
X123750000Y-68760000D03*
X123750000Y-67490000D03*
D18*
X113500000Y-75210000D03*
X113500000Y-73810000D03*
X112100000Y-73810000D03*
X112100000Y-75210000D03*
X112100000Y-76610000D03*
X113500000Y-76610000D03*
X114900000Y-76610000D03*
X114900000Y-75210000D03*
X114900000Y-73810000D03*
%TD*%
D10*
%TO.C,R48*%
X101662500Y-76500000D03*
X99837500Y-76500000D03*
%TD*%
D19*
%TO.C,C37*%
X131250000Y-91750000D03*
X133150000Y-91750000D03*
%TD*%
D14*
%TO.C,R14*%
X205212500Y-93000000D03*
X202287500Y-93000000D03*
%TD*%
D20*
%TO.C,C20*%
X164707500Y-107610000D03*
X164707500Y-105710000D03*
%TD*%
D21*
%TO.C,LED2*%
X158710000Y-89000000D03*
D22*
X161250000Y-89000000D03*
%TD*%
D23*
%TO.C,H2*%
X221250000Y-63750000D03*
%TD*%
D24*
%TO.C,Q9*%
X166380000Y-73180000D03*
X166380000Y-71280000D03*
X164505000Y-72230000D03*
%TD*%
D11*
%TO.C,R35*%
X180115000Y-86597500D03*
X181940000Y-86597500D03*
%TD*%
D13*
%TO.C,Q1*%
X103950000Y-108650000D03*
X103950000Y-106750000D03*
X101850000Y-107700000D03*
%TD*%
D15*
%TO.C,R42*%
X170100000Y-72277500D03*
X170100000Y-74102500D03*
%TD*%
D25*
%TO.C,R43*%
X198000000Y-66162500D03*
X198000000Y-64337500D03*
%TD*%
D10*
%TO.C,R26*%
X170472500Y-101340000D03*
X168647500Y-101340000D03*
%TD*%
D26*
%TO.C,Q7*%
X181980000Y-89130000D03*
X180080000Y-89130000D03*
X181030000Y-91005000D03*
%TD*%
D27*
%TO.C,Q11*%
X199850000Y-64000000D03*
X201750000Y-64000000D03*
X200800000Y-62125000D03*
%TD*%
D12*
%TO.C,C6*%
X128500000Y-108575000D03*
X128500000Y-105625000D03*
%TD*%
D20*
%TO.C,C18*%
X162047500Y-107640000D03*
X162047500Y-105740000D03*
%TD*%
D28*
%TO.C,R19*%
X216600000Y-95962500D03*
X216600000Y-93037500D03*
%TD*%
D25*
%TO.C,R28*%
X155450000Y-64092500D03*
X155450000Y-62267500D03*
%TD*%
D29*
%TO.C,C8*%
X134600000Y-97025000D03*
X134600000Y-99975000D03*
%TD*%
D15*
%TO.C,R32*%
X140500000Y-89017500D03*
X140500000Y-90842500D03*
%TD*%
D30*
%TO.C,R21*%
X208000000Y-93037500D03*
X208000000Y-95962500D03*
%TD*%
D15*
%TO.C,R40*%
X155530000Y-72187500D03*
X155530000Y-74012500D03*
%TD*%
D31*
%TO.C,R18*%
X207237500Y-86700000D03*
X210162500Y-86700000D03*
%TD*%
D15*
%TO.C,R11*%
X148720000Y-106417500D03*
X148720000Y-108242500D03*
%TD*%
D11*
%TO.C,R9*%
X157615000Y-105530000D03*
X159440000Y-105530000D03*
%TD*%
D25*
%TO.C,R12*%
X155330000Y-107852500D03*
X155330000Y-106027500D03*
%TD*%
D12*
%TO.C,C14*%
X158000000Y-102250000D03*
X158000000Y-99300000D03*
%TD*%
D11*
%TO.C,R37*%
X149637500Y-75430000D03*
X151462500Y-75430000D03*
%TD*%
D32*
%TO.C,C16*%
X119750000Y-107000000D03*
D33*
X117750000Y-107000000D03*
%TD*%
D19*
%TO.C,C1*%
X100100000Y-63000000D03*
X102000000Y-63000000D03*
%TD*%
D27*
%TO.C,Q10*%
X180010000Y-74127500D03*
X181910000Y-74127500D03*
X180960000Y-72252500D03*
%TD*%
D34*
%TO.C,C35*%
X157790000Y-65470000D03*
X157790000Y-67370000D03*
%TD*%
D23*
%TO.C,H3*%
X93750000Y-106250000D03*
%TD*%
D35*
%TO.C,D2*%
X111050000Y-108000000D03*
X114450000Y-108000000D03*
%TD*%
D36*
%TO.C,BZ1*%
X190250000Y-70550000D03*
D37*
X190250000Y-62950000D03*
%TD*%
D25*
%TO.C,R22*%
X219790000Y-71872500D03*
X219790000Y-70047500D03*
%TD*%
D38*
%TO.C,Y1*%
X138000000Y-90520000D03*
X138000000Y-88020000D03*
%TD*%
D14*
%TO.C,R29*%
X163732500Y-67310000D03*
X160807500Y-67310000D03*
%TD*%
D39*
%TO.C,F1*%
X146300000Y-99975000D03*
X146300000Y-97025000D03*
%TD*%
D40*
%TO.C,F2*%
X103660000Y-99200000D03*
X103660000Y-103800000D03*
%TD*%
D41*
%TO.C,IC2*%
X106050000Y-96050000D03*
X106050000Y-95100000D03*
X106050000Y-94150000D03*
X103550000Y-94150000D03*
X103550000Y-95100000D03*
X103550000Y-96050000D03*
%TD*%
D10*
%TO.C,R8*%
X139025000Y-105600000D03*
X137200000Y-105600000D03*
%TD*%
D11*
%TO.C,R33*%
X164935000Y-86167500D03*
X166760000Y-86167500D03*
%TD*%
D19*
%TO.C,C26*%
X219300000Y-86500000D03*
X221200000Y-86500000D03*
%TD*%
D42*
%TO.C,L1*%
X126455000Y-97220000D03*
X128505000Y-97220000D03*
%TD*%
D23*
%TO.C,H1*%
X93750000Y-63750000D03*
%TD*%
D43*
%TO.C,D1*%
X92176000Y-80500000D03*
X94500000Y-80500000D03*
%TD*%
D12*
%TO.C,C19*%
X123100000Y-108675000D03*
X123100000Y-105725000D03*
%TD*%
D44*
%TO.C,D3*%
X110000000Y-103700000D03*
X110000000Y-99300000D03*
%TD*%
D19*
%TO.C,C4*%
X92600000Y-85250000D03*
X94500000Y-85250000D03*
%TD*%
D31*
%TO.C,R20*%
X210637500Y-96000000D03*
X213562500Y-96000000D03*
%TD*%
D12*
%TO.C,C5*%
X125800000Y-108575000D03*
X125800000Y-105625000D03*
%TD*%
D45*
%TO.C,C38*%
X202750000Y-96250000D03*
X200250000Y-96250000D03*
%TD*%
D10*
%TO.C,R4*%
X94412500Y-83000000D03*
X92587500Y-83000000D03*
%TD*%
D15*
%TO.C,R38*%
X140620000Y-72267500D03*
X140620000Y-74092500D03*
%TD*%
D25*
%TO.C,R6*%
X132200000Y-105225000D03*
X132200000Y-103400000D03*
%TD*%
D10*
%TO.C,R13*%
X159370000Y-107660000D03*
X157545000Y-107660000D03*
%TD*%
D42*
%TO.C,L2*%
X150805000Y-100340000D03*
X152855000Y-100340000D03*
%TD*%
D24*
%TO.C,Q8*%
X151337500Y-73140000D03*
X151337500Y-71240000D03*
X149462500Y-72190000D03*
%TD*%
D46*
%TO.C,C28*%
X210200000Y-89250000D03*
X208300000Y-89250000D03*
%TD*%
D11*
%TO.C,R49*%
X126750000Y-92000000D03*
X128575000Y-92000000D03*
%TD*%
D21*
%TO.C,LED5*%
X158750000Y-72250000D03*
D22*
X161290000Y-72250000D03*
%TD*%
D11*
%TO.C,R31*%
X149695000Y-85857500D03*
X151520000Y-85857500D03*
%TD*%
D26*
%TO.C,Q5*%
X151200000Y-88375000D03*
X149300000Y-88375000D03*
X150250000Y-90250000D03*
%TD*%
D11*
%TO.C,R24*%
X167487500Y-98000000D03*
X169312500Y-98000000D03*
%TD*%
D26*
%TO.C,Q6*%
X166750000Y-88500000D03*
X164850000Y-88500000D03*
X165800000Y-90375000D03*
%TD*%
D13*
%TO.C,Q4*%
X160740000Y-62700000D03*
X160740000Y-64600000D03*
X162840000Y-63650000D03*
%TD*%
D47*
%TO.C,U1*%
X128250000Y-99962000D03*
X127750000Y-99962000D03*
X127250000Y-99962000D03*
X126750000Y-99962000D03*
X126750000Y-101638000D03*
X127250000Y-101638000D03*
X127750000Y-101638000D03*
X128250000Y-101638000D03*
%TD*%
D23*
%TO.C,H4*%
X221250000Y-106250000D03*
%TD*%
D14*
%TO.C,R17*%
X215962500Y-86750000D03*
X213037500Y-86750000D03*
%TD*%
D48*
%TO.C,C3*%
X99025000Y-65500000D03*
X101975000Y-65500000D03*
%TD*%
D46*
%TO.C,C27*%
X214950000Y-89250000D03*
X213050000Y-89250000D03*
%TD*%
D49*
%TO.C,L3*%
X119750000Y-98400000D03*
X119750000Y-102250000D03*
%TD*%
D20*
%TO.C,C24*%
X216500000Y-70050000D03*
X216500000Y-68150000D03*
%TD*%
D10*
%TO.C,R46*%
X101662500Y-74500000D03*
X99837500Y-74500000D03*
%TD*%
%TO.C,R2*%
X101750000Y-70000000D03*
X99925000Y-70000000D03*
%TD*%
D21*
%TO.C,LED4*%
X143750000Y-72250000D03*
D22*
X146290000Y-72250000D03*
%TD*%
D20*
%TO.C,C29*%
X170910000Y-105630000D03*
X170910000Y-103730000D03*
%TD*%
D50*
%TO.C,J1*%
X97940000Y-91840000D03*
X97940000Y-98440000D03*
D51*
X99075000Y-91940000D03*
X99075000Y-92740000D03*
D52*
X99075000Y-93890000D03*
X99075000Y-94890000D03*
X99075000Y-95390000D03*
X99075000Y-96390000D03*
D51*
X99075000Y-97540000D03*
X99075000Y-98340000D03*
D52*
X99075000Y-96890000D03*
X99075000Y-95890000D03*
X99075000Y-94390000D03*
X99075000Y-93390000D03*
D37*
X98500000Y-90530000D03*
X98500000Y-99750000D03*
D53*
X94000000Y-90530000D03*
X94000000Y-99750000D03*
%TD*%
D29*
%TO.C,C34*%
X172640000Y-63775000D03*
X172640000Y-66725000D03*
%TD*%
%TO.C,C7*%
X131700000Y-97025000D03*
X131700000Y-99975000D03*
%TD*%
D54*
%TO.C,U5*%
X135250000Y-89770000D03*
X135250000Y-88500000D03*
X135250000Y-87230000D03*
X135250000Y-85960000D03*
X130100000Y-85960000D03*
X130100000Y-87230000D03*
X130100000Y-88500000D03*
X130100000Y-89770000D03*
%TD*%
D25*
%TO.C,R7*%
X134900000Y-105212500D03*
X134900000Y-103387500D03*
%TD*%
D55*
%TO.C,PS1*%
X201750000Y-72250000D03*
X201750000Y-74790000D03*
X201750000Y-82410000D03*
X201750000Y-87490000D03*
%TD*%
D10*
%TO.C,R30*%
X155272500Y-67320000D03*
X153447500Y-67320000D03*
%TD*%
D46*
%TO.C,C30*%
X178410000Y-103890000D03*
X176510000Y-103890000D03*
%TD*%
D19*
%TO.C,C2*%
X99800000Y-72250000D03*
X101700000Y-72250000D03*
%TD*%
D21*
%TO.C,LED1*%
X143710000Y-89000000D03*
D22*
X146250000Y-89000000D03*
%TD*%
D56*
%TO.C,C31*%
X179350000Y-101000000D03*
X176400000Y-101000000D03*
%TD*%
D20*
%TO.C,C32*%
X168210000Y-105530000D03*
X168210000Y-103630000D03*
%TD*%
D12*
%TO.C,C12*%
X145000000Y-108275000D03*
X145000000Y-105325000D03*
%TD*%
%TO.C,C13*%
X142100000Y-108275000D03*
X142100000Y-105325000D03*
%TD*%
D21*
%TO.C,LED6*%
X173725000Y-72250000D03*
D22*
X176265000Y-72250000D03*
%TD*%
D34*
%TO.C,C11*%
X142800000Y-98050000D03*
X142800000Y-99950000D03*
%TD*%
D11*
%TO.C,R3*%
X99500000Y-67750000D03*
X101325000Y-67750000D03*
%TD*%
D57*
%TO.C,D4*%
X213050000Y-91400000D03*
X211150000Y-91400000D03*
X212100000Y-93400000D03*
%TD*%
D15*
%TO.C,R34*%
X155450000Y-89047500D03*
X155450000Y-90872500D03*
%TD*%
D34*
%TO.C,C10*%
X140300000Y-98050000D03*
X140300000Y-99950000D03*
%TD*%
D58*
%TO.C,Q2*%
X219710000Y-82000000D03*
D59*
X222250000Y-82000000D03*
X222250000Y-74380000D03*
X219710000Y-74380000D03*
%TD*%
D60*
%TO.C,D5*%
X167070000Y-67160000D03*
X167070000Y-63760000D03*
%TD*%
D28*
%TO.C,R25*%
X173680000Y-104272500D03*
X173680000Y-101347500D03*
%TD*%
D47*
%TO.C,U2*%
X152540000Y-103772000D03*
X152040000Y-103772000D03*
X151540000Y-103772000D03*
X151040000Y-103772000D03*
X151040000Y-105448000D03*
X151540000Y-105448000D03*
X152040000Y-105448000D03*
X152540000Y-105448000D03*
%TD*%
D11*
%TO.C,R5*%
X137187500Y-103400000D03*
X139012500Y-103400000D03*
%TD*%
D21*
%TO.C,LED3*%
X173710000Y-89000000D03*
D22*
X176250000Y-89000000D03*
%TD*%
D34*
%TO.C,C33*%
X175280000Y-64820000D03*
X175280000Y-66720000D03*
%TD*%
D11*
%TO.C,R16*%
X219287500Y-84250000D03*
X221112500Y-84250000D03*
%TD*%
D12*
%TO.C,C15*%
X160750000Y-102250000D03*
X160750000Y-99300000D03*
%TD*%
%TO.C,C17*%
X163500000Y-102250000D03*
X163500000Y-99300000D03*
%TD*%
D11*
%TO.C,R41*%
X178237500Y-76700000D03*
X180062500Y-76700000D03*
%TD*%
D29*
%TO.C,C9*%
X137500000Y-97025000D03*
X137500000Y-99975000D03*
%TD*%
D61*
%TO.C,IC3*%
X216445000Y-73525000D03*
X215175000Y-73525000D03*
X213905000Y-73525000D03*
X212635000Y-73525000D03*
X211365000Y-73525000D03*
X210095000Y-73525000D03*
X208825000Y-73525000D03*
X207555000Y-73525000D03*
X207555000Y-82975000D03*
X208825000Y-82975000D03*
X210095000Y-82975000D03*
X211365000Y-82975000D03*
X212635000Y-82975000D03*
X213905000Y-82975000D03*
X215175000Y-82975000D03*
X216445000Y-82975000D03*
%TD*%
D15*
%TO.C,R10*%
X108000000Y-106887500D03*
X108000000Y-108712500D03*
%TD*%
D34*
%TO.C,C36*%
X150920000Y-65400000D03*
X150920000Y-67300000D03*
%TD*%
D11*
%TO.C,R39*%
X164657500Y-75410000D03*
X166482500Y-75410000D03*
%TD*%
D62*
%TO.C,S1*%
X96500000Y-84500000D03*
X96500000Y-80000000D03*
D63*
X99000000Y-85750000D03*
X99000000Y-78750000D03*
%TD*%
D21*
%TO.C,J2*%
X209310000Y-101100000D03*
D22*
X205500000Y-101100000D03*
X201690000Y-101100000D03*
%TD*%
D64*
%TO.C,J5*%
X176250000Y-96750000D03*
D65*
X177500000Y-96750000D03*
X178750000Y-96750000D03*
X180000000Y-96750000D03*
%TD*%
D66*
%TO.C,J3*%
X169750000Y-66750000D03*
D67*
X169750000Y-64210000D03*
%TD*%
G36*
X192943039Y-81924357D02*
G01*
X192988794Y-81977161D01*
X193000000Y-82028672D01*
X193000000Y-109780672D01*
X192980315Y-109847711D01*
X192927511Y-109893466D01*
X192876000Y-109904672D01*
X185374000Y-109904672D01*
X185306961Y-109884987D01*
X185261206Y-109832183D01*
X185250000Y-109780672D01*
X185250000Y-82028672D01*
X185269685Y-81961633D01*
X185322489Y-81915878D01*
X185374000Y-81904672D01*
X192876000Y-81904672D01*
X192943039Y-81924357D01*
G37*
G36*
X223428466Y-75489947D02*
G01*
X223474446Y-75542555D01*
X223485806Y-75598588D01*
X223313862Y-80871554D01*
X223292003Y-80937917D01*
X223237736Y-80981926D01*
X223191501Y-80991503D01*
X210701587Y-81149979D01*
X210698426Y-81149979D01*
X199769985Y-81010000D01*
X191115579Y-81057781D01*
X191048431Y-81038467D01*
X191002386Y-80985916D01*
X190990897Y-80934604D01*
X190962181Y-76598478D01*
X190981421Y-76531310D01*
X191033921Y-76485206D01*
X191084343Y-76473671D01*
X193359922Y-76440001D01*
X198730001Y-76329999D01*
X198730003Y-76329999D01*
X199135189Y-76146699D01*
X199166034Y-76137343D01*
X200769936Y-75871667D01*
X200790200Y-75870000D01*
X200809996Y-75870000D01*
X203487511Y-75710148D01*
X203492517Y-75709951D01*
X206089800Y-75660003D01*
X206090269Y-75659995D01*
X216449276Y-75500011D01*
X216450663Y-75499997D01*
X223361344Y-75470548D01*
X223428466Y-75489947D01*
G37*
M02*
